<svg width="60" height="61" viewBox="0 0 60 61" fill="none" xmlns="http://www.w3.org/2000/svg">
<path d="M16.25 15.5C16.25 16.8261 16.7768 18.0979 17.7145 19.0355C18.6521 19.9732 19.9239 20.5 21.25 20.5C22.5761 20.5 23.8479 19.9732 24.7855 19.0355C25.7232 18.0979 26.25 16.8261 26.25 15.5C26.25 14.1739 25.7232 12.9021 24.7855 11.9645C23.8479 11.0268 22.5761 10.5 21.25 10.5C19.9239 10.5 18.6521 11.0268 17.7145 11.9645C16.7768 12.9021 16.25 14.1739 16.25 15.5ZM38.75 30.5C38.75 31.8261 39.2768 33.0979 40.2145 34.0355C41.1521 34.9732 42.4239 35.5 43.75 35.5C45.0761 35.5 46.3479 34.9732 47.2855 34.0355C48.2232 33.0979 48.75 31.8261 48.75 30.5C48.75 29.1739 48.2232 27.9021 47.2855 26.9645C46.3479 26.0268 45.0761 25.5 43.75 25.5C42.4239 25.5 41.1521 26.0268 40.2145 26.9645C39.2768 27.9021 38.75 29.1739 38.75 30.5ZM16.25 45.5C16.25 46.8261 16.7768 48.0979 17.7145 49.0355C18.6521 49.9732 19.9239 50.5 21.25 50.5C22.5761 50.5 23.8479 49.9732 24.7855 49.0355C25.7232 48.0979 26.25 46.8261 26.25 45.5C26.25 44.1739 25.7232 42.9021 24.7855 41.9645C23.8479 41.0268 22.5761 40.5 21.25 40.5C19.9239 40.5 18.6521 41.0268 17.7145 41.9645C16.7768 42.9021 16.25 44.1739 16.25 45.5Z" stroke="#1E5781" stroke-width="4" stroke-linejoin="round"/>
<path d="M5 45.5H16.25M26.25 45.5H55M5 15.5H16.25M26.25 15.5H55" stroke="#1E5781" stroke-width="4" stroke-linecap="round"/>
<path d="M5 5.5V55.5" stroke="#1E5781" stroke-width="4" stroke-linecap="round" stroke-linejoin="round"/>
<path d="M5 30.5H38.75M48.75 30.5H55" stroke="#1E5781" stroke-width="4" stroke-linecap="round"/>
</svg>
