<svg width="45" height="45" viewBox="0 0 45 45" fill="none" xmlns="http://www.w3.org/2000/svg">
<circle cx="22.5" cy="22.5" r="22.5" fill="white"/>
<path d="M25.4 24.0909H27.2V27.1673L30.128 28.7055L29.228 30.1236L25.4 28.1164V24.0909ZM30.2 18.6364H13.4L13.4 30.6364H19.004C18.488 29.6436 18.2 28.5309 18.2 27.3636C18.2 25.3383 19.085 23.396 20.6603 21.9639C22.2356 20.5318 24.3722 19.7273 26.6 19.7273C27.884 19.7273 29.108 19.9891 30.2 20.4582V18.6364ZM13.4 32.8182C12.7635 32.8182 12.153 32.5883 11.7029 32.1791C11.2529 31.77 11 31.215 11 30.6364L11 15.3636C11 14.1527 12.068 13.1818 13.4 13.1818H14.6V11H17V13.1818H26.6V11L29 11V13.1818H30.2C30.8365 13.1818 31.447 13.4117 31.8971 13.8209C32.3471 14.23 32.6 14.785 32.6 15.3636V22.0182C34.088 23.3927 35 25.28 35 27.3636C35 29.3889 34.115 31.3313 32.5397 32.7634C30.9644 34.1955 28.8278 35 26.6 35C24.308 35 22.232 34.1709 20.72 32.8182H13.4ZM26.6 22.0727C25.0564 22.0727 23.5761 22.6302 22.4846 23.6224C21.3932 24.6146 20.78 25.9604 20.78 27.3636C20.78 30.2873 23.384 32.6545 26.6 32.6545C27.3643 32.6545 28.1211 32.5177 28.8272 32.2518C29.5333 31.9859 30.1749 31.5962 30.7154 31.1049C31.2558 30.6136 31.6845 30.0303 31.977 29.3884C32.2695 28.7465 32.42 28.0584 32.42 27.3636C32.42 24.44 29.816 22.0727 26.6 22.0727Z" fill="#1E5781"/>
</svg>
