<svg width="20" height="20" viewBox="0 0 20 20" fill="none" xmlns="http://www.w3.org/2000/svg">
<path d="M12.4997 11.6666H7.49967C7.27866 11.6666 7.0667 11.7544 6.91042 11.9107C6.75414 12.067 6.66634 12.2789 6.66634 12.5C6.66634 12.721 6.75414 12.9329 6.91042 13.0892C7.0667 13.2455 7.27866 13.3333 7.49967 13.3333H12.4997C12.7207 13.3333 12.9326 13.2455 13.0889 13.0892C13.2452 12.9329 13.333 12.721 13.333 12.5C13.333 12.2789 13.2452 12.067 13.0889 11.9107C12.9326 11.7544 12.7207 11.6666 12.4997 11.6666ZM12.4997 8.33329H9.16634C8.94533 8.33329 8.73337 8.42109 8.57709 8.57737C8.42081 8.73365 8.33301 8.94561 8.33301 9.16663C8.33301 9.38764 8.42081 9.5996 8.57709 9.75588C8.73337 9.91216 8.94533 9.99996 9.16634 9.99996H12.4997C12.7207 9.99996 12.9326 9.91216 13.0889 9.75588C13.2452 9.5996 13.333 9.38764 13.333 9.16663C13.333 8.94561 13.2452 8.73365 13.0889 8.57737C12.9326 8.42109 12.7207 8.33329 12.4997 8.33329ZM14.1663 3.33329H13.183C13.0111 2.847 12.6929 2.42579 12.2722 2.12741C11.8515 1.82902 11.3488 1.66808 10.833 1.66663H9.16634C8.65055 1.66808 8.14784 1.82902 7.72712 2.12741C7.3064 2.42579 6.98827 2.847 6.81634 3.33329H5.83301C5.16997 3.33329 4.53408 3.59668 4.06524 4.06553C3.5964 4.53437 3.33301 5.17025 3.33301 5.83329V15.8333C3.33301 16.4963 3.5964 17.1322 4.06524 17.6011C4.53408 18.0699 5.16997 18.3333 5.83301 18.3333H14.1663C14.8294 18.3333 15.4653 18.0699 15.9341 17.6011C16.4029 17.1322 16.6663 16.4963 16.6663 15.8333V5.83329C16.6663 5.17025 16.4029 4.53437 15.9341 4.06553C15.4653 3.59668 14.8294 3.33329 14.1663 3.33329ZM8.33301 4.16663C8.33301 3.94561 8.42081 3.73365 8.57709 3.57737C8.73337 3.42109 8.94533 3.33329 9.16634 3.33329H10.833C11.054 3.33329 11.266 3.42109 11.4223 3.57737C11.5785 3.73365 11.6663 3.94561 11.6663 4.16663V4.99996H8.33301V4.16663ZM14.9997 15.8333C14.9997 16.0543 14.9119 16.2663 14.7556 16.4225C14.5993 16.5788 14.3874 16.6666 14.1663 16.6666H5.83301C5.61199 16.6666 5.40003 16.5788 5.24375 16.4225C5.08747 16.2663 4.99967 16.0543 4.99967 15.8333V5.83329C4.99967 5.61228 5.08747 5.40032 5.24375 5.24404C5.40003 5.08776 5.61199 4.99996 5.83301 4.99996H6.66634V5.83329C6.66634 6.05431 6.75414 6.26627 6.91042 6.42255C7.0667 6.57883 7.27866 6.66663 7.49967 6.66663H12.4997C12.7207 6.66663 12.9326 6.57883 13.0889 6.42255C13.2452 6.26627 13.333 6.05431 13.333 5.83329V4.99996H14.1663C14.3874 4.99996 14.5993 5.08776 14.7556 5.24404C14.9119 5.40032 14.9997 5.61228 14.9997 5.83329V15.8333Z" fill="#444444"/>
</svg>
