<svg width="20" height="20" viewBox="0 0 20 20" fill="none" xmlns="http://www.w3.org/2000/svg">
<path d="M9.99967 10.8333C9.77866 10.8333 9.5667 10.9211 9.41042 11.0774C9.25414 11.2337 9.16634 11.4456 9.16634 11.6666V14.1666C9.16634 14.3876 9.25414 14.5996 9.41042 14.7559C9.5667 14.9122 9.77866 15 9.99967 15C10.2207 15 10.4326 14.9122 10.5889 14.7559C10.7452 14.5996 10.833 14.3876 10.833 14.1666V11.6666C10.833 11.4456 10.7452 11.2337 10.5889 11.0774C10.4326 10.9211 10.2207 10.8333 9.99967 10.8333ZM14.1663 7.49996V5.83329C14.1663 4.72822 13.7274 3.66842 12.946 2.88701C12.1646 2.10561 11.1047 1.66663 9.99967 1.66663C8.89461 1.66663 7.8348 2.10561 7.0534 2.88701C6.27199 3.66842 5.83301 4.72822 5.83301 5.83329V7.49996C5.16997 7.49996 4.53408 7.76335 4.06524 8.23219C3.5964 8.70103 3.33301 9.33692 3.33301 9.99996V15.8333C3.33301 16.4963 3.5964 17.1322 4.06524 17.6011C4.53408 18.0699 5.16997 18.3333 5.83301 18.3333H14.1663C14.8294 18.3333 15.4653 18.0699 15.9341 17.6011C16.4029 17.1322 16.6663 16.4963 16.6663 15.8333V9.99996C16.6663 9.33692 16.4029 8.70103 15.9341 8.23219C15.4653 7.76335 14.8294 7.49996 14.1663 7.49996ZM7.49967 5.83329C7.49967 5.17025 7.76307 4.53437 8.23191 4.06553C8.70075 3.59668 9.33663 3.33329 9.99967 3.33329C10.6627 3.33329 11.2986 3.59668 11.7674 4.06553C12.2363 4.53437 12.4997 5.17025 12.4997 5.83329V7.49996H7.49967V5.83329ZM14.9997 15.8333C14.9997 16.0543 14.9119 16.2663 14.7556 16.4225C14.5993 16.5788 14.3874 16.6666 14.1663 16.6666H5.83301C5.61199 16.6666 5.40003 16.5788 5.24375 16.4225C5.08747 16.2663 4.99967 16.0543 4.99967 15.8333V9.99996C4.99967 9.77895 5.08747 9.56698 5.24375 9.4107C5.40003 9.25442 5.61199 9.16663 5.83301 9.16663H14.1663C14.3874 9.16663 14.5993 9.25442 14.7556 9.4107C14.9119 9.56698 14.9997 9.77895 14.9997 9.99996V15.8333Z" fill="#444444"/>
</svg>
