<svg width="150" height="32" viewBox="0 0 150 32" fill="none" xmlns="http://www.w3.org/2000/svg">
<path d="M13.56 2.168L11.24 1.64L13.176 0.199999H13.528L14.6 7.496L13.896 7.64L10.888 2.552L11.704 3.56C11.096 3.09067 10.4667 2.744 9.816 2.52C9.16533 2.28533 8.47733 2.168 7.752 2.168C6.38667 2.168 5.35733 2.47733 4.664 3.096C3.98133 3.704 3.64 4.51467 3.64 5.528C3.64 6.21067 3.78933 6.78667 4.088 7.256C4.39733 7.72533 4.81333 8.12533 5.336 8.456C5.86933 8.776 6.46667 9.064 7.128 9.32C7.78933 9.56533 8.488 9.816 9.224 10.072C9.94933 10.328 10.6693 10.616 11.384 10.936C12.1093 11.256 12.7653 11.656 13.352 12.136C13.9493 12.6053 14.424 13.1973 14.776 13.912C15.1387 14.6267 15.32 15.5067 15.32 16.552C15.32 17.992 14.9627 19.2187 14.248 20.232C13.544 21.2453 12.5787 22.0187 11.352 22.552C10.1253 23.0853 8.73333 23.352 7.176 23.352C6.09867 23.352 5.13333 23.2773 4.28 23.128C3.43733 22.9893 2.56267 22.7387 1.656 22.376L0.264 16.52H1.096L5.224 22.456L2.344 20.616C3.208 21.0747 3.976 21.4213 4.648 21.656C5.33067 21.88 6.056 21.992 6.824 21.992C8.01867 21.992 9.02667 21.8373 9.848 21.528C10.68 21.208 11.3093 20.7387 11.736 20.12C12.1627 19.5013 12.376 18.744 12.376 17.848C12.376 17.0267 12.1893 16.3493 11.816 15.816C11.4427 15.272 10.9467 14.824 10.328 14.472C9.72 14.1093 9.048 13.8 8.312 13.544C7.58667 13.288 6.872 13.0267 6.168 12.76C5.45333 12.4827 4.78133 12.184 4.152 11.864C3.52267 11.544 2.96267 11.1653 2.472 10.728C1.992 10.2907 1.61333 9.75733 1.336 9.128C1.06933 8.49867 0.936 7.74133 0.936 6.856C0.936 5.61867 1.23467 4.552 1.832 3.656C2.42933 2.76 3.272 2.06667 4.36 1.576C5.45867 1.07467 6.75467 0.823999 8.248 0.823999C9.24 0.823999 10.152 0.930666 10.984 1.144C11.8267 1.35733 12.6853 1.69867 13.56 2.168ZM18.135 2.648L15.767 1.8V1.192H25.047V1.8L22.327 2.616L29.223 12.6L28.231 12.584L33.927 2.632L31.255 1.8V1.192H38.071V1.8L35.671 2.648L29.239 13.272V21.576L31.767 22.392V23H23.143V22.392L25.687 21.576V13.336L18.135 2.648ZM51.7013 2.168L49.3813 1.64L51.3173 0.199999H51.6693L52.7413 7.496L52.0373 7.64L49.0293 2.552L49.8453 3.56C49.2373 3.09067 48.6079 2.744 47.9573 2.52C47.3066 2.28533 46.6186 2.168 45.8933 2.168C44.5279 2.168 43.4986 2.47733 42.8053 3.096C42.1226 3.704 41.7813 4.51467 41.7813 5.528C41.7813 6.21067 41.9306 6.78667 42.2293 7.256C42.5386 7.72533 42.9546 8.12533 43.4773 8.456C44.0106 8.776 44.6079 9.064 45.2693 9.32C45.9306 9.56533 46.6293 9.816 47.3653 10.072C48.0906 10.328 48.8106 10.616 49.5253 10.936C50.2506 11.256 50.9066 11.656 51.4933 12.136C52.0906 12.6053 52.5653 13.1973 52.9173 13.912C53.2799 14.6267 53.4613 15.5067 53.4613 16.552C53.4613 17.992 53.1039 19.2187 52.3893 20.232C51.6853 21.2453 50.7199 22.0187 49.4933 22.552C48.2666 23.0853 46.8746 23.352 45.3173 23.352C44.2399 23.352 43.2746 23.2773 42.4213 23.128C41.5786 22.9893 40.7039 22.7387 39.7973 22.376L38.4053 16.52H39.2373L43.3653 22.456L40.4853 20.616C41.3493 21.0747 42.1173 21.4213 42.7893 21.656C43.4719 21.88 44.1973 21.992 44.9653 21.992C46.1599 21.992 47.1679 21.8373 47.9893 21.528C48.8213 21.208 49.4506 20.7387 49.8773 20.12C50.3039 19.5013 50.5173 18.744 50.5173 17.848C50.5173 17.0267 50.3306 16.3493 49.9573 15.816C49.5839 15.272 49.0879 14.824 48.4693 14.472C47.8613 14.1093 47.1893 13.8 46.4533 13.544C45.7279 13.288 45.0133 13.0267 44.3093 12.76C43.5946 12.4827 42.9226 12.184 42.2933 11.864C41.6639 11.544 41.1039 11.1653 40.6133 10.728C40.1333 10.2907 39.7546 9.75733 39.4773 9.128C39.2106 8.49867 39.0773 7.74133 39.0773 6.856C39.0773 5.61867 39.3759 4.552 39.9733 3.656C40.5706 2.76 41.4133 2.06667 42.5013 1.576C43.5999 1.07467 44.8959 0.823999 46.3893 0.823999C47.3813 0.823999 48.2933 0.930666 49.1253 1.144C49.9679 1.35733 50.8266 1.69867 51.7013 2.168ZM70.1553 7.368C70.1553 6.36533 69.9473 5.51733 69.5313 4.824C69.1153 4.13067 68.4379 3.60267 67.4993 3.24C66.5606 2.86667 65.2966 2.68 63.7073 2.68H59.2593L59.4033 1.192H65.6113C67.5633 1.192 69.1366 1.45867 70.3313 1.992C71.5259 2.52533 72.3953 3.24533 72.9393 4.152C73.4939 5.05867 73.7713 6.072 73.7713 7.192C73.7713 8.344 73.4886 9.40533 72.9233 10.376C72.3579 11.336 71.4726 12.104 70.2673 12.68C69.0726 13.256 67.5206 13.544 65.6113 13.544H59.4033L59.2593 12.056H65.2593C66.1979 12.056 67.0353 11.88 67.7713 11.528C68.5073 11.1653 69.0886 10.6373 69.5153 9.944C69.9419 9.24 70.1553 8.38133 70.1553 7.368ZM61.8673 1.192V21.576L64.4113 22.392V23H55.7873V22.392L58.3153 21.576V2.616L55.7873 1.8V1.192H61.8673ZM85.023 8.36C85.5883 8.36 86.0043 8.50933 86.271 8.808C86.5377 9.096 86.671 9.47467 86.671 9.944C86.671 10.52 86.4843 10.9787 86.111 11.32C85.7483 11.6613 85.2897 11.832 84.735 11.832C84.4363 11.832 84.159 11.7893 83.903 11.704C83.6577 11.6187 83.4017 11.5387 83.135 11.464C82.8683 11.3787 82.5697 11.336 82.239 11.336C81.983 11.336 81.7163 11.3733 81.439 11.448C81.1617 11.5227 80.8897 11.6293 80.623 11.768C80.3563 11.9067 80.111 12.072 79.887 12.264L79.615 11.608C80.287 10.9893 80.8897 10.4773 81.423 10.072C81.9563 9.656 82.4363 9.32533 82.863 9.08C83.2897 8.824 83.679 8.64267 84.031 8.536C84.3937 8.41867 84.7243 8.36 85.023 8.36ZM80.303 11.288V21.704L82.703 22.44V23H74.879V22.44L77.119 21.72V11.656C76.9697 11.496 76.7883 11.352 76.575 11.224C76.3723 11.0853 76.127 10.9413 75.839 10.792C75.5617 10.6427 75.231 10.488 74.847 10.328V9.896L79.791 8.216H80.111L80.303 11.288ZM94.6148 22.136C95.3828 22.136 96.0548 21.928 96.6308 21.512C97.2068 21.096 97.6548 20.4507 97.9748 19.576C98.2948 18.7013 98.4548 17.576 98.4548 16.2C98.4548 14.728 98.2948 13.496 97.9748 12.504C97.6654 11.5013 97.2174 10.744 96.6308 10.232C96.0548 9.72 95.3508 9.464 94.5188 9.464C93.7508 9.464 93.0788 9.672 92.5028 10.088C91.9268 10.504 91.4788 11.1547 91.1588 12.04C90.8494 12.9147 90.6948 14.04 90.6948 15.416C90.6948 16.8773 90.8494 18.1093 91.1588 19.112C91.4681 20.104 91.9161 20.856 92.5028 21.368C93.0894 21.88 93.7934 22.136 94.6148 22.136ZM94.4868 23.352C93.0574 23.352 91.7934 23.0373 90.6948 22.408C89.6068 21.7787 88.7534 20.9093 88.1348 19.8C87.5268 18.68 87.2228 17.3893 87.2228 15.928C87.2228 14.4453 87.5428 13.128 88.1828 11.976C88.8334 10.8133 89.7188 9.90133 90.8388 9.24C91.9588 8.57867 93.2281 8.248 94.6468 8.248C96.0868 8.248 97.3508 8.56267 98.4388 9.192C99.5374 9.82133 100.391 10.696 100.999 11.816C101.607 12.9253 101.911 14.2107 101.911 15.672C101.911 17.1653 101.585 18.4933 100.935 19.656C100.284 20.808 99.3988 21.7147 98.2788 22.376C97.1694 23.0267 95.9054 23.352 94.4868 23.352ZM106.881 4.392C106.23 4.392 105.702 4.17867 105.297 3.752C104.892 3.31467 104.689 2.792 104.689 2.184C104.689 1.58666 104.892 1.08 105.297 0.664C105.702 0.247999 106.23 0.039999 106.881 0.039999C107.542 0.039999 108.07 0.247999 108.465 0.664C108.86 1.08 109.057 1.58666 109.057 2.184C109.057 2.792 108.86 3.31467 108.465 3.752C108.07 4.17867 107.542 4.392 106.881 4.392ZM105.441 11.496C105.324 11.3573 105.148 11.208 104.913 11.048C104.678 10.888 104.412 10.728 104.113 10.568C103.814 10.3973 103.505 10.2373 103.185 10.088V9.608L108.385 8.216H108.721L108.625 11.128V23.544C108.625 24.1947 108.598 24.76 108.545 25.24C108.492 25.72 108.369 26.1627 108.177 26.568C107.996 26.9733 107.713 27.3893 107.329 27.816C106.945 28.2427 106.428 28.7227 105.777 29.256C105.137 29.8 104.332 30.4507 103.361 31.208L102.721 30.488C103.34 29.816 103.83 29.2453 104.193 28.776C104.566 28.3173 104.838 27.8907 105.009 27.496C105.19 27.1013 105.308 26.6907 105.361 26.264C105.414 25.8373 105.441 25.3307 105.441 24.744V11.496ZM118.527 8.248C119.647 8.248 120.612 8.488 121.423 8.968C122.233 9.448 122.873 10.1467 123.343 11.064C123.823 11.9813 124.116 13.0907 124.223 14.392H114.127L114.159 13.272L122.447 12.968L120.991 13.704C120.916 12.7867 120.767 12.0187 120.543 11.4C120.329 10.7707 120.031 10.296 119.647 9.976C119.263 9.64533 118.777 9.48 118.191 9.48C117.497 9.48 116.889 9.67733 116.367 10.072C115.844 10.4667 115.439 11.064 115.151 11.864C114.863 12.664 114.719 13.672 114.719 14.888C114.719 16.2 114.943 17.3093 115.391 18.216C115.839 19.1227 116.468 19.8107 117.279 20.28C118.1 20.7387 119.065 20.968 120.175 20.968C120.633 20.968 121.076 20.9147 121.503 20.808C121.94 20.6907 122.361 20.5147 122.767 20.28C123.183 20.0453 123.583 19.752 123.967 19.4L124.367 19.864C123.78 20.6533 123.183 21.3093 122.575 21.832C121.967 22.344 121.321 22.728 120.639 22.984C119.956 23.2293 119.22 23.352 118.431 23.352C117.097 23.352 115.913 23.048 114.879 22.44C113.855 21.8213 113.049 20.9627 112.463 19.864C111.887 18.7653 111.599 17.4853 111.599 16.024C111.599 14.616 111.871 13.3253 112.415 12.152C112.959 10.968 113.748 10.024 114.783 9.32C115.817 8.60533 117.065 8.248 118.527 8.248ZM134.139 8.248C135.121 8.248 135.905 8.35467 136.491 8.568C137.078 8.78133 137.505 9.05333 137.771 9.384C138.038 9.704 138.171 10.0347 138.171 10.376C138.171 10.7067 138.102 10.9947 137.963 11.24C137.825 11.4853 137.627 11.6773 137.371 11.816C137.115 11.9547 136.827 12.024 136.507 12.024C136.241 12.024 135.985 11.944 135.739 11.784C135.494 11.6133 135.249 11.4107 135.003 11.176C134.769 10.9307 134.523 10.6853 134.267 10.44C134.022 10.1947 133.761 9.992 133.483 9.832C133.206 9.672 132.902 9.592 132.571 9.592C131.985 9.592 131.435 9.768 130.923 10.12C130.411 10.4613 129.995 11 129.675 11.736C129.366 12.4613 129.211 13.3947 129.211 14.536C129.211 15.9333 129.414 17.112 129.819 18.072C130.235 19.032 130.827 19.7573 131.595 20.248C132.363 20.728 133.281 20.968 134.347 20.968C135.019 20.968 135.659 20.84 136.267 20.584C136.886 20.328 137.467 19.9387 138.011 19.416L138.411 19.864C137.835 20.6853 137.243 21.352 136.635 21.864C136.038 22.376 135.409 22.7547 134.747 23C134.097 23.2347 133.398 23.352 132.651 23.352C131.361 23.352 130.219 23.048 129.227 22.44C128.246 21.832 127.473 20.9893 126.907 19.912C126.353 18.8347 126.075 17.5867 126.075 16.168C126.075 15.0693 126.262 14.0453 126.635 13.096C127.009 12.136 127.542 11.2933 128.235 10.568C128.929 9.84267 129.771 9.27733 130.763 8.872C131.766 8.456 132.891 8.248 134.139 8.248ZM144.473 18.92C144.473 19.6133 144.692 20.1413 145.129 20.504C145.566 20.856 146.19 21.032 147.001 21.032C147.406 21.032 147.844 20.9947 148.313 20.92C148.782 20.8347 149.3 20.7067 149.865 20.536V21.272C149.118 21.7947 148.468 22.2053 147.913 22.504C147.358 22.8027 146.857 23.0107 146.409 23.128C145.972 23.256 145.54 23.32 145.113 23.32C144.366 23.32 143.705 23.1813 143.129 22.904C142.553 22.6267 142.1 22.2 141.769 21.624C141.449 21.048 141.289 20.3227 141.289 19.448V10.984L139.353 9.608V9.24C139.577 9.09067 139.822 8.92533 140.089 8.744C140.366 8.56267 140.654 8.36533 140.953 8.152C141.262 7.93867 141.577 7.72 141.897 7.496C142.228 7.272 142.564 7.048 142.905 6.824C143.246 6.58933 143.582 6.35467 143.913 6.12H144.473V9.08V18.92ZM143.241 10.344V8.6H149.369L149.097 10.344H143.241Z" fill="#383A48"/>
</svg>
