<svg width="60" height="60" viewBox="0 0 60 60" fill="none" xmlns="http://www.w3.org/2000/svg">
<g clip-path="url(#clip0_371_209)">
<path fill-rule="evenodd" clip-rule="evenodd" d="M1.5138 2.99995C1.31566 2.99812 1.11912 3.03558 0.935536 3.11014C0.751952 3.18471 0.584961 3.29491 0.444208 3.43438C0.303455 3.57385 0.19173 3.73982 0.115486 3.92272C0.0392428 4.10561 -8.38452e-06 4.3018 1.34342e-09 4.49995L1.34342e-09 46.6739C4.79706e-05 46.9598 0.0817946 47.2398 0.235611 47.4807C0.389428 47.7217 0.608908 47.9137 0.8682 48.0341L12.21 53.3021C12.228 52.2347 12.2976 51.1643 12.4596 50.1101L3 45.7163V6.85075L19.365 14.4527L19.4346 26.5463C19.9734 26.0023 20.5748 25.5239 21.2262 25.1213L21.1662 14.6705L38.3718 6.67795L38.4642 22.7843C39.0249 22.3377 39.6252 21.943 40.2576 21.6053L40.1706 6.46555L57 14.2829V31.5821C57.0018 31.7147 57.003 31.8479 57 31.9805V42.7193C57.8796 43.3853 58.674 44.1593 59.3334 45.0503C59.5734 45.3719 59.793 45.7043 60 46.0439V13.3259C60 13.0401 59.9182 12.7601 59.7644 12.5192C59.6106 12.2782 59.3911 12.0862 59.1318 11.9657L40.1322 3.13975C39.9297 3.04558 39.7087 2.99782 39.4854 2.99995C39.2718 3.00182 39.0611 3.04928 38.8674 3.13915L20.4996 11.6717L2.1318 3.13975C1.9381 3.04967 1.7274 3.00201 1.5138 2.99995ZM19.5126 40.3289L19.515 40.6049C19.5786 40.5809 19.6398 40.5491 19.704 40.5257C19.6374 40.4627 19.578 40.3937 19.5126 40.3289Z" fill="#1E5781"/>
<path d="M45.6002 22.6614C40.6292 22.6614 36.6002 26.691 36.6002 31.6614C36.6002 36.6318 40.6292 40.6614 45.6002 40.6614C50.57 40.6614 54.6002 36.6318 54.6002 31.6614C54.6002 26.691 50.57 22.6614 45.6002 22.6614ZM45.6002 41.9952C35.6582 41.9952 31.2002 46.4538 31.2002 56.3952V57.5952C31.2452 59.9592 32.2904 60.0288 34.5002 59.9952H56.7002C59.5172 59.9928 60.0194 59.9982 60.0002 57.5952V56.3952C60.0002 46.4538 55.541 41.9952 45.6002 41.9952Z" fill="#1E5781"/>
<path d="M26.4 26.0341C22.3278 26.0341 19.0254 29.3365 19.0254 33.4093C19.0254 37.4815 22.3278 40.7827 26.4 40.7827C30.4722 40.7827 33.774 37.4815 33.774 33.4087C33.774 29.3365 30.4722 26.0341 26.4 26.0341ZM26.4 41.8747C18.255 41.8747 14.6016 45.5287 14.6016 53.6731V54.6565C14.6388 56.5933 15.495 56.6503 17.3052 56.6227H28.779C28.4862 51.7699 29.9196 46.6159 33.4896 43.3393C31.6824 42.3517 29.3346 41.8747 26.4 41.8747Z" fill="#1E5781"/>
</g>
<defs>
<clipPath id="clip0_371_209">
<rect width="60" height="60" fill="white"/>
</clipPath>
</defs>
</svg>
