<svg width="60" height="61" viewBox="0 0 60 61" fill="none" xmlns="http://www.w3.org/2000/svg">
<path d="M52.5 50.5H10V49.15L22.5 36.65L32 46.15C32.4684 46.6156 33.102 46.877 33.7625 46.877C34.423 46.877 35.0566 46.6156 35.525 46.15L54.275 27.4C54.5093 27.1676 54.6953 26.8911 54.8222 26.5864C54.9492 26.2818 55.0145 25.955 55.0145 25.625C55.0145 25.295 54.9492 24.9682 54.8222 24.6636C54.6953 24.3589 54.5093 24.0824 54.275 23.85C53.8066 23.3844 53.173 23.123 52.5125 23.123C51.852 23.123 51.2184 23.3844 50.75 23.85L33.75 40.85L24.275 31.35C23.8066 30.8844 23.173 30.623 22.5125 30.623C21.852 30.623 21.2184 30.8844 20.75 31.35L10 42.075V29.15L22.5 16.65L29.5 23.65C29.9684 24.1156 30.602 24.377 31.2625 24.377C31.923 24.377 32.5566 24.1156 33.025 23.65L45 11.675L50.475 17.15C50.9458 17.6174 51.5829 17.8787 52.2463 17.8764C52.9097 17.874 53.5451 17.6083 54.0125 17.1375C54.4799 16.6667 54.7412 16.0296 54.7389 15.3662C54.7365 14.7028 54.4708 14.0674 54 13.6L46.725 6.375C46.2566 5.90937 45.623 5.64802 44.9625 5.64802C44.302 5.64802 43.6684 5.90937 43.2 6.375L31.2 18.375L24.225 11.375C23.7566 10.9094 23.123 10.648 22.4625 10.648C21.802 10.648 21.1684 10.9094 20.7 11.375L10 22.075V8C10 7.33696 9.73661 6.70107 9.26777 6.23223C8.79893 5.76339 8.16304 5.5 7.5 5.5C6.83696 5.5 6.20107 5.76339 5.73223 6.23223C5.26339 6.70107 5 7.33696 5 8V53C5 53.663 5.26339 54.2989 5.73223 54.7678C6.20107 55.2366 6.83696 55.5 7.5 55.5H52.5C53.163 55.5 53.7989 55.2366 54.2678 54.7678C54.7366 54.2989 55 53.663 55 53C55 52.337 54.7366 51.7011 54.2678 51.2322C53.7989 50.7634 53.163 50.5 52.5 50.5Z" fill="#1E5781"/>
</svg>
