<svg width="60" height="61" viewBox="0 0 60 61" fill="none" xmlns="http://www.w3.org/2000/svg">
<path d="M30 18C31.3807 18 32.5 16.8807 32.5 15.5C32.5 14.1193 31.3807 13 30 13C28.6193 13 27.5 14.1193 27.5 15.5C27.5 16.8807 28.6193 18 30 18Z" fill="#1E5781"/>
<path d="M15 43H45V48H15V43ZM25 30.075L31.98 37.06L41.81 27.2225L45 30.5V20.5H35L38.275 23.6875L31.9775 29.985L25 23L15 33L18.535 36.535L25 30.075Z" fill="#1E5781"/>
<path d="M47.5 7.99997H39.255C39.0095 7.63033 38.7424 7.27554 38.455 6.93747L38.43 6.90747C36.5932 4.7681 34.0089 3.41068 31.205 3.11247C30.4088 2.96088 29.5912 2.96088 28.795 3.11247C25.9911 3.41068 23.4068 4.7681 21.57 6.90747L21.545 6.93747C21.2577 7.27473 20.9905 7.62869 20.745 7.99747L12.5 7.99997C10.5115 8.00196 8.60498 8.79277 7.19889 10.1989C5.7928 11.605 5.00199 13.5115 5 15.5V50.5C5.00199 52.4885 5.7928 54.395 7.19889 55.8011C8.60498 57.2072 10.5115 57.998 12.5 58H47.5C49.4885 57.998 51.395 57.2072 52.8011 55.8011C54.2072 54.395 54.998 52.4885 55 50.5V15.5C54.998 13.5115 54.2072 11.605 52.8011 10.1989C51.395 8.79277 49.4885 8.00196 47.5 7.99997ZM50 50.5C50 51.163 49.7366 51.7989 49.2678 52.2677C48.7989 52.7366 48.163 53 47.5 53H12.5C11.8372 52.9993 11.2017 52.7357 10.733 52.267C10.2643 51.7983 10.0007 51.1628 10 50.5V15.5C10.0007 14.8371 10.2643 14.2016 10.733 13.7329C11.2017 13.2642 11.8372 13.0006 12.5 13H23.875C24.1619 11.5871 24.9284 10.3169 26.0447 9.4045C27.1609 8.49212 28.5583 7.99371 30 7.99371C31.4417 7.99371 32.8391 8.49212 33.9553 9.4045C35.0716 10.3169 35.8381 11.5871 36.125 13H47.5C48.1628 13.0006 48.7983 13.2642 49.267 13.7329C49.7357 14.2016 49.9993 14.8371 50 15.5V50.5Z" fill="#1E5781"/>
</svg>
