<svg width="380" height="164" viewBox="0 0 380 164" fill="none" xmlns="http://www.w3.org/2000/svg">
<g clip-path="url(#clip0_116_907)">
<path d="M148.37 130.493C159.89 114.682 165.339 95.2547 163.721 75.7588C162.103 56.263 153.526 37.9996 139.557 24.304C125.588 10.6083 107.158 2.3943 87.6343 1.16188C68.1103 -0.0705276 48.7943 5.76093 33.214 17.5913C17.6336 29.4217 6.82839 46.4616 2.77161 65.5993C-1.28516 84.7369 1.67719 104.695 11.1177 121.83C20.5581 138.964 35.8468 152.131 54.1917 158.926C72.5366 165.721 92.7136 165.69 111.038 158.84L82.5 82.5L148.37 130.493Z" fill="#F5F5F5"/>
<path d="M1.625 72.4261C3.07891 60.7538 7.04217 49.5345 13.2425 39.539C19.4429 29.5434 27.7334 21.0083 37.5446 14.5201C47.3558 8.03196 58.4551 3.74436 70.0802 1.95188C81.7054 0.159398 93.5807 0.90451 104.891 4.13603C116.2 7.36755 126.677 13.0089 135.6 20.6726C144.523 28.3362 151.682 37.8406 156.584 48.5328C161.487 59.2251 164.016 70.8517 164 82.6142C163.983 94.3767 161.421 105.996 156.489 116.675L82.5 82.5L1.625 72.4261Z" fill="#03045E"/>
<path d="M62.4508 161.495C46.2347 157.38 31.678 148.373 20.7574 135.699C9.83685 123.024 3.08144 107.296 1.40849 90.6496C-0.264463 74.0032 3.22611 57.2453 11.4062 42.6512C19.5864 28.0571 32.0597 16.3341 47.1325 9.07389L82.5 82.5L62.4508 161.495Z" fill="#00B4D8"/>
<path d="M120.737 154.473C106.926 161.811 91.296 165.019 75.7115 163.717C60.127 162.414 45.2463 156.655 32.8452 147.127L82.5 82.5L120.737 154.473Z" fill="#90E0EF"/>
<path d="M163.013 95.147C160.479 111.278 153.158 126.276 141.999 138.196C130.841 150.117 116.358 158.411 100.43 162.003L82.5 82.5L163.013 95.147Z" fill="#0077B6"/>
<g clip-path="url(#clip1_116_907)">
<rect x="270" y="36.5" width="11" height="11" rx="2" fill="#03045E"/>
<path d="M298.41 45.0801V46H293.893V45.0801H298.41ZM294.121 37.4688V46H292.99V37.4688H294.121ZM297.812 41.1367V42.0566H293.893V41.1367H297.812ZM298.352 37.4688V38.3945H293.893V37.4688H298.352ZM300.725 40.9199V46H299.635V39.6602H300.666L300.725 40.9199ZM300.502 42.5898L299.998 42.5723C300.002 42.1387 300.059 41.7383 300.168 41.3711C300.277 41 300.439 40.6777 300.654 40.4043C300.869 40.1309 301.137 39.9199 301.457 39.7715C301.777 39.6191 302.148 39.543 302.57 39.543C302.867 39.543 303.141 39.5859 303.391 39.6719C303.641 39.7539 303.857 39.8848 304.041 40.0645C304.225 40.2441 304.367 40.4746 304.469 40.7559C304.57 41.0371 304.621 41.377 304.621 41.7754V46H303.537V41.8281C303.537 41.4961 303.48 41.2305 303.367 41.0312C303.258 40.832 303.102 40.6875 302.898 40.5977C302.695 40.5039 302.457 40.457 302.184 40.457C301.863 40.457 301.596 40.5137 301.381 40.627C301.166 40.7402 300.994 40.8965 300.865 41.0957C300.736 41.2949 300.643 41.5234 300.584 41.7812C300.529 42.0352 300.502 42.3047 300.502 42.5898ZM304.609 41.9922L303.883 42.2148C303.887 41.8672 303.943 41.5332 304.053 41.2129C304.166 40.8926 304.328 40.6074 304.539 40.3574C304.754 40.1074 305.018 39.9102 305.33 39.7656C305.643 39.6172 306 39.543 306.402 39.543C306.742 39.543 307.043 39.5879 307.305 39.6777C307.57 39.7676 307.793 39.9062 307.973 40.0938C308.156 40.2773 308.295 40.5137 308.389 40.8027C308.482 41.0918 308.529 41.4355 308.529 41.834V46H307.439V41.8223C307.439 41.4668 307.383 41.1914 307.27 40.9961C307.16 40.7969 307.004 40.6582 306.801 40.5801C306.602 40.498 306.363 40.457 306.086 40.457C305.848 40.457 305.637 40.498 305.453 40.5801C305.27 40.6621 305.115 40.7754 304.99 40.9199C304.865 41.0605 304.77 41.2227 304.703 41.4062C304.641 41.5898 304.609 41.7852 304.609 41.9922ZM315.777 46.1172C315.336 46.1172 314.936 46.043 314.576 45.8945C314.221 45.7422 313.914 45.5293 313.656 45.2559C313.402 44.9824 313.207 44.6582 313.07 44.2832C312.934 43.9082 312.865 43.498 312.865 43.0527V42.8066C312.865 42.291 312.941 41.832 313.094 41.4297C313.246 41.0234 313.453 40.6797 313.715 40.3984C313.977 40.1172 314.273 39.9043 314.605 39.7598C314.938 39.6152 315.281 39.543 315.637 39.543C316.09 39.543 316.48 39.6211 316.809 39.7773C317.141 39.9336 317.412 40.1523 317.623 40.4336C317.834 40.7109 317.99 41.0391 318.092 41.418C318.193 41.793 318.244 42.2031 318.244 42.6484V43.1348H313.51V42.25H317.16V42.168C317.145 41.8867 317.086 41.6133 316.984 41.3477C316.887 41.082 316.73 40.8633 316.516 40.6914C316.301 40.5195 316.008 40.4336 315.637 40.4336C315.391 40.4336 315.164 40.4863 314.957 40.5918C314.75 40.6934 314.572 40.8457 314.424 41.0488C314.275 41.252 314.16 41.5 314.078 41.793C313.996 42.0859 313.955 42.4238 313.955 42.8066V43.0527C313.955 43.3535 313.996 43.6367 314.078 43.9023C314.164 44.1641 314.287 44.3945 314.447 44.5938C314.611 44.793 314.809 44.9492 315.039 45.0625C315.273 45.1758 315.539 45.2324 315.836 45.2324C316.219 45.2324 316.543 45.1543 316.809 44.998C317.074 44.8418 317.307 44.6328 317.506 44.3711L318.162 44.8926C318.025 45.0996 317.852 45.2969 317.641 45.4844C317.43 45.6719 317.17 45.8242 316.861 45.9414C316.557 46.0586 316.195 46.1172 315.777 46.1172ZM320.242 39.6602L321.631 41.9688L323.037 39.6602H324.309L322.234 42.7891L324.373 46H323.119L321.654 43.6211L320.189 46H318.93L321.062 42.7891L318.994 39.6602H320.242ZM327.977 46.1172C327.535 46.1172 327.135 46.043 326.775 45.8945C326.42 45.7422 326.113 45.5293 325.855 45.2559C325.602 44.9824 325.406 44.6582 325.27 44.2832C325.133 43.9082 325.064 43.498 325.064 43.0527V42.8066C325.064 42.291 325.141 41.832 325.293 41.4297C325.445 41.0234 325.652 40.6797 325.914 40.3984C326.176 40.1172 326.473 39.9043 326.805 39.7598C327.137 39.6152 327.48 39.543 327.836 39.543C328.289 39.543 328.68 39.6211 329.008 39.7773C329.34 39.9336 329.611 40.1523 329.822 40.4336C330.033 40.7109 330.189 41.0391 330.291 41.418C330.393 41.793 330.443 42.2031 330.443 42.6484V43.1348H325.709V42.25H329.359V42.168C329.344 41.8867 329.285 41.6133 329.184 41.3477C329.086 41.082 328.93 40.8633 328.715 40.6914C328.5 40.5195 328.207 40.4336 327.836 40.4336C327.59 40.4336 327.363 40.4863 327.156 40.5918C326.949 40.6934 326.771 40.8457 326.623 41.0488C326.475 41.252 326.359 41.5 326.277 41.793C326.195 42.0859 326.154 42.4238 326.154 42.8066V43.0527C326.154 43.3535 326.195 43.6367 326.277 43.9023C326.363 44.1641 326.486 44.3945 326.646 44.5938C326.811 44.793 327.008 44.9492 327.238 45.0625C327.473 45.1758 327.738 45.2324 328.035 45.2324C328.418 45.2324 328.742 45.1543 329.008 44.998C329.273 44.8418 329.506 44.6328 329.705 44.3711L330.361 44.8926C330.225 45.0996 330.051 45.2969 329.84 45.4844C329.629 45.6719 329.369 45.8242 329.061 45.9414C328.756 46.0586 328.395 46.1172 327.977 46.1172ZM334.246 45.2266C334.504 45.2266 334.742 45.1738 334.961 45.0684C335.18 44.9629 335.359 44.8184 335.5 44.6348C335.641 44.4473 335.721 44.2344 335.74 43.9961H336.771C336.752 44.3711 336.625 44.7207 336.391 45.0449C336.16 45.3652 335.857 45.625 335.482 45.8242C335.107 46.0195 334.695 46.1172 334.246 46.1172C333.77 46.1172 333.354 46.0332 332.998 45.8652C332.646 45.6973 332.354 45.4668 332.119 45.1738C331.889 44.8809 331.715 44.5449 331.598 44.166C331.484 43.7832 331.428 43.3789 331.428 42.9531V42.707C331.428 42.2812 331.484 41.8789 331.598 41.5C331.715 41.1172 331.889 40.7793 332.119 40.4863C332.354 40.1934 332.646 39.9629 332.998 39.7949C333.354 39.627 333.77 39.543 334.246 39.543C334.742 39.543 335.176 39.6445 335.547 39.8477C335.918 40.0469 336.209 40.3203 336.42 40.668C336.635 41.0117 336.752 41.4023 336.771 41.8398H335.74C335.721 41.5781 335.646 41.3418 335.518 41.1309C335.393 40.9199 335.221 40.752 335.002 40.627C334.787 40.498 334.535 40.4336 334.246 40.4336C333.914 40.4336 333.635 40.5 333.408 40.6328C333.186 40.7617 333.008 40.9375 332.875 41.1602C332.746 41.3789 332.652 41.623 332.594 41.8926C332.539 42.1582 332.512 42.4297 332.512 42.707V42.9531C332.512 43.2305 332.539 43.5039 332.594 43.7734C332.648 44.043 332.74 44.2871 332.869 44.5059C333.002 44.7246 333.18 44.9004 333.402 45.0332C333.629 45.1621 333.91 45.2266 334.246 45.2266ZM341.869 44.5352V39.6602H342.959V46H341.922L341.869 44.5352ZM342.074 43.1992L342.525 43.1875C342.525 43.6094 342.48 44 342.391 44.3594C342.305 44.7148 342.164 45.0234 341.969 45.2852C341.773 45.5469 341.518 45.752 341.201 45.9004C340.885 46.0449 340.5 46.1172 340.047 46.1172C339.738 46.1172 339.455 46.0723 339.197 45.9824C338.943 45.8926 338.725 45.7539 338.541 45.5664C338.357 45.3789 338.215 45.1348 338.113 44.834C338.016 44.5332 337.967 44.1719 337.967 43.75V39.6602H339.051V43.7617C339.051 44.0469 339.082 44.2832 339.145 44.4707C339.211 44.6543 339.299 44.8008 339.408 44.9102C339.521 45.0156 339.646 45.0898 339.783 45.1328C339.924 45.1758 340.068 45.1973 340.217 45.1973C340.678 45.1973 341.043 45.1094 341.312 44.9336C341.582 44.7539 341.775 44.5137 341.893 44.2129C342.014 43.9082 342.074 43.5703 342.074 43.1992ZM347.148 45.2266C347.406 45.2266 347.645 45.1738 347.863 45.0684C348.082 44.9629 348.262 44.8184 348.402 44.6348C348.543 44.4473 348.623 44.2344 348.643 43.9961H349.674C349.654 44.3711 349.527 44.7207 349.293 45.0449C349.062 45.3652 348.76 45.625 348.385 45.8242C348.01 46.0195 347.598 46.1172 347.148 46.1172C346.672 46.1172 346.256 46.0332 345.9 45.8652C345.549 45.6973 345.256 45.4668 345.021 45.1738C344.791 44.8809 344.617 44.5449 344.5 44.166C344.387 43.7832 344.33 43.3789 344.33 42.9531V42.707C344.33 42.2812 344.387 41.8789 344.5 41.5C344.617 41.1172 344.791 40.7793 345.021 40.4863C345.256 40.1934 345.549 39.9629 345.9 39.7949C346.256 39.627 346.672 39.543 347.148 39.543C347.645 39.543 348.078 39.6445 348.449 39.8477C348.82 40.0469 349.111 40.3203 349.322 40.668C349.537 41.0117 349.654 41.4023 349.674 41.8398H348.643C348.623 41.5781 348.549 41.3418 348.42 41.1309C348.295 40.9199 348.123 40.752 347.904 40.627C347.689 40.498 347.438 40.4336 347.148 40.4336C346.816 40.4336 346.537 40.5 346.311 40.6328C346.088 40.7617 345.91 40.9375 345.777 41.1602C345.648 41.3789 345.555 41.623 345.496 41.8926C345.441 42.1582 345.414 42.4297 345.414 42.707V42.9531C345.414 43.2305 345.441 43.5039 345.496 43.7734C345.551 44.043 345.643 44.2871 345.771 44.5059C345.904 44.7246 346.082 44.9004 346.305 45.0332C346.531 45.1621 346.812 45.2266 347.148 45.2266ZM346.551 46.0586H347.33L347.26 46.3691C347.486 46.4082 347.691 46.502 347.875 46.6504C348.062 46.7988 348.156 47.043 348.156 47.3828C348.156 47.5664 348.117 47.7324 348.039 47.8809C347.965 48.0332 347.854 48.1621 347.705 48.2676C347.557 48.377 347.371 48.4609 347.148 48.5195C346.93 48.5781 346.674 48.6074 346.381 48.6074L346.34 47.9805C346.52 47.9805 346.682 47.9609 346.826 47.9219C346.975 47.8828 347.092 47.8203 347.178 47.7344C347.268 47.6484 347.312 47.5371 347.312 47.4004C347.312 47.2715 347.279 47.1699 347.213 47.0957C347.146 47.0215 347.043 46.9648 346.902 46.9258C346.766 46.8906 346.588 46.8652 346.369 46.8496L346.551 46.0586ZM354.631 44.916V41.6523C354.631 41.4023 354.58 41.1855 354.479 41.002C354.381 40.8145 354.232 40.6699 354.033 40.5684C353.834 40.4668 353.588 40.416 353.295 40.416C353.021 40.416 352.781 40.4629 352.574 40.5566C352.371 40.6504 352.211 40.7734 352.094 40.9258C351.98 41.0781 351.924 41.2422 351.924 41.418H350.84C350.84 41.1914 350.898 40.9668 351.016 40.7441C351.133 40.5215 351.301 40.3203 351.52 40.1406C351.742 39.957 352.008 39.8125 352.316 39.707C352.629 39.5977 352.977 39.543 353.359 39.543C353.82 39.543 354.227 39.6211 354.578 39.7773C354.934 39.9336 355.211 40.1699 355.41 40.4863C355.613 40.7988 355.715 41.1914 355.715 41.6641V44.6172C355.715 44.8281 355.732 45.0527 355.768 45.291C355.807 45.5293 355.863 45.7344 355.938 45.9062V46H354.807C354.752 45.875 354.709 45.709 354.678 45.502C354.646 45.291 354.631 45.0957 354.631 44.916ZM354.818 42.1562L354.83 42.918H353.734C353.426 42.918 353.15 42.9434 352.908 42.9941C352.666 43.041 352.463 43.1133 352.299 43.2109C352.135 43.3086 352.01 43.4316 351.924 43.5801C351.838 43.7246 351.795 43.8945 351.795 44.0898C351.795 44.2891 351.84 44.4707 351.93 44.6348C352.02 44.7988 352.154 44.9297 352.334 45.0273C352.518 45.1211 352.742 45.168 353.008 45.168C353.34 45.168 353.633 45.0977 353.887 44.957C354.141 44.8164 354.342 44.6445 354.49 44.4414C354.643 44.2383 354.725 44.041 354.736 43.8496L355.199 44.3711C355.172 44.5352 355.098 44.7168 354.977 44.916C354.855 45.1152 354.693 45.3066 354.49 45.4902C354.291 45.6699 354.053 45.8203 353.775 45.9414C353.502 46.0586 353.193 46.1172 352.85 46.1172C352.42 46.1172 352.043 46.0332 351.719 45.8652C351.398 45.6973 351.148 45.4727 350.969 45.1914C350.793 44.9062 350.705 44.5879 350.705 44.2363C350.705 43.8965 350.771 43.5977 350.904 43.3398C351.037 43.0781 351.229 42.8613 351.479 42.6895C351.729 42.5137 352.029 42.3809 352.381 42.291C352.732 42.2012 353.125 42.1562 353.559 42.1562H354.818ZM354.824 37.1172L355.557 37.1816C355.557 37.4668 355.5 37.7168 355.387 37.9316C355.273 38.1465 355.121 38.3125 354.93 38.4297C354.742 38.5469 354.529 38.6055 354.291 38.6055C354.092 38.6055 353.928 38.5781 353.799 38.5234C353.67 38.4648 353.555 38.4004 353.453 38.3301C353.352 38.2559 353.244 38.1914 353.131 38.1367C353.021 38.0781 352.885 38.0488 352.721 38.0488C352.557 38.0488 352.418 38.1113 352.305 38.2363C352.195 38.3613 352.141 38.5156 352.141 38.6992L351.408 38.6641C351.408 38.3789 351.463 38.1289 351.572 37.9141C351.686 37.6953 351.838 37.5254 352.029 37.4043C352.221 37.2793 352.434 37.2168 352.668 37.2168C352.836 37.2168 352.982 37.2461 353.107 37.3047C353.236 37.3594 353.357 37.4238 353.471 37.498C353.584 37.5684 353.701 37.6328 353.822 37.6914C353.943 37.7461 354.082 37.7734 354.238 37.7734C354.402 37.7734 354.541 37.7109 354.654 37.5859C354.768 37.457 354.824 37.3008 354.824 37.1172ZM357.133 42.9004V42.7656C357.133 42.3086 357.199 41.8848 357.332 41.4941C357.465 41.0996 357.656 40.7578 357.906 40.4688C358.156 40.1758 358.459 39.9492 358.814 39.7891C359.17 39.625 359.568 39.543 360.01 39.543C360.455 39.543 360.855 39.625 361.211 39.7891C361.57 39.9492 361.875 40.1758 362.125 40.4688C362.379 40.7578 362.572 41.0996 362.705 41.4941C362.838 41.8848 362.904 42.3086 362.904 42.7656V42.9004C362.904 43.3574 362.838 43.7812 362.705 44.1719C362.572 44.5625 362.379 44.9043 362.125 45.1973C361.875 45.4863 361.572 45.7129 361.217 45.877C360.865 46.0371 360.467 46.1172 360.021 46.1172C359.576 46.1172 359.176 46.0371 358.82 45.877C358.465 45.7129 358.16 45.4863 357.906 45.1973C357.656 44.9043 357.465 44.5625 357.332 44.1719C357.199 43.7812 357.133 43.3574 357.133 42.9004ZM358.217 42.7656V42.9004C358.217 43.2168 358.254 43.5156 358.328 43.7969C358.402 44.0742 358.514 44.3203 358.662 44.5352C358.814 44.75 359.004 44.9199 359.23 45.0449C359.457 45.166 359.721 45.2266 360.021 45.2266C360.318 45.2266 360.578 45.166 360.801 45.0449C361.027 44.9199 361.215 44.75 361.363 44.5352C361.512 44.3203 361.623 44.0742 361.697 43.7969C361.775 43.5156 361.814 43.2168 361.814 42.9004V42.7656C361.814 42.4531 361.775 42.1582 361.697 41.8809C361.623 41.5996 361.51 41.3516 361.357 41.1367C361.209 40.918 361.021 40.7461 360.795 40.6211C360.572 40.4961 360.311 40.4336 360.01 40.4336C359.713 40.4336 359.451 40.4961 359.225 40.6211C359.002 40.7461 358.814 40.918 358.662 41.1367C358.514 41.3516 358.402 41.5996 358.328 41.8809C358.254 42.1582 358.217 42.4531 358.217 42.7656Z" fill="black"/>
</g>
<g clip-path="url(#clip2_116_907)">
<rect x="270" y="56.5" width="11" height="11" rx="2" fill="#00B4D8"/>
<path d="M299.553 57.4688V66H298.416L294.121 59.4199V66H292.99V57.4688H294.121L298.434 64.0664V57.4688H299.553ZM305.131 64.916V61.6523C305.131 61.4023 305.08 61.1855 304.979 61.002C304.881 60.8145 304.732 60.6699 304.533 60.5684C304.334 60.4668 304.088 60.416 303.795 60.416C303.521 60.416 303.281 60.4629 303.074 60.5566C302.871 60.6504 302.711 60.7734 302.594 60.9258C302.48 61.0781 302.424 61.2422 302.424 61.418H301.34C301.34 61.1914 301.398 60.9668 301.516 60.7441C301.633 60.5215 301.801 60.3203 302.02 60.1406C302.242 59.957 302.508 59.8125 302.816 59.707C303.129 59.5977 303.477 59.543 303.859 59.543C304.32 59.543 304.727 59.6211 305.078 59.7773C305.434 59.9336 305.711 60.1699 305.91 60.4863C306.113 60.7988 306.215 61.1914 306.215 61.6641V64.6172C306.215 64.8281 306.232 65.0527 306.268 65.291C306.307 65.5293 306.363 65.7344 306.438 65.9062V66H305.307C305.252 65.875 305.209 65.709 305.178 65.502C305.146 65.291 305.131 65.0957 305.131 64.916ZM305.318 62.1562L305.33 62.918H304.234C303.926 62.918 303.65 62.9434 303.408 62.9941C303.166 63.041 302.963 63.1133 302.799 63.2109C302.635 63.3086 302.51 63.4316 302.424 63.5801C302.338 63.7246 302.295 63.8945 302.295 64.0898C302.295 64.2891 302.34 64.4707 302.43 64.6348C302.52 64.7988 302.654 64.9297 302.834 65.0273C303.018 65.1211 303.242 65.168 303.508 65.168C303.84 65.168 304.133 65.0977 304.387 64.957C304.641 64.8164 304.842 64.6445 304.99 64.4414C305.143 64.2383 305.225 64.041 305.236 63.8496L305.699 64.3711C305.672 64.5352 305.598 64.7168 305.477 64.916C305.355 65.1152 305.193 65.3066 304.99 65.4902C304.791 65.6699 304.553 65.8203 304.275 65.9414C304.002 66.0586 303.693 66.1172 303.35 66.1172C302.92 66.1172 302.543 66.0332 302.219 65.8652C301.898 65.6973 301.648 65.4727 301.469 65.1914C301.293 64.9062 301.205 64.5879 301.205 64.2363C301.205 63.8965 301.271 63.5977 301.404 63.3398C301.537 63.0781 301.729 62.8613 301.979 62.6895C302.229 62.5137 302.529 62.3809 302.881 62.291C303.232 62.2012 303.625 62.1562 304.059 62.1562H305.318ZM305.324 57.1172L306.057 57.1816C306.057 57.4668 306 57.7168 305.887 57.9316C305.773 58.1465 305.621 58.3125 305.43 58.4297C305.242 58.5469 305.029 58.6055 304.791 58.6055C304.592 58.6055 304.428 58.5781 304.299 58.5234C304.17 58.4648 304.055 58.4004 303.953 58.3301C303.852 58.2559 303.744 58.1914 303.631 58.1367C303.521 58.0781 303.385 58.0488 303.221 58.0488C303.057 58.0488 302.918 58.1113 302.805 58.2363C302.695 58.3613 302.641 58.5156 302.641 58.6992L301.908 58.6641C301.908 58.3789 301.963 58.1289 302.072 57.9141C302.186 57.6953 302.338 57.5254 302.529 57.4043C302.721 57.2793 302.934 57.2168 303.168 57.2168C303.336 57.2168 303.482 57.2461 303.607 57.3047C303.736 57.3594 303.857 57.4238 303.971 57.498C304.084 57.5684 304.201 57.6328 304.322 57.6914C304.443 57.7461 304.582 57.7734 304.738 57.7734C304.902 57.7734 305.041 57.7109 305.154 57.5859C305.268 57.457 305.324 57.3008 305.324 57.1172ZM307.633 62.9004V62.7656C307.633 62.3086 307.699 61.8848 307.832 61.4941C307.965 61.0996 308.156 60.7578 308.406 60.4688C308.656 60.1758 308.959 59.9492 309.314 59.7891C309.67 59.625 310.068 59.543 310.51 59.543C310.955 59.543 311.355 59.625 311.711 59.7891C312.07 59.9492 312.375 60.1758 312.625 60.4688C312.879 60.7578 313.072 61.0996 313.205 61.4941C313.338 61.8848 313.404 62.3086 313.404 62.7656V62.9004C313.404 63.3574 313.338 63.7812 313.205 64.1719C313.072 64.5625 312.879 64.9043 312.625 65.1973C312.375 65.4863 312.072 65.7129 311.717 65.877C311.365 66.0371 310.967 66.1172 310.521 66.1172C310.076 66.1172 309.676 66.0371 309.32 65.877C308.965 65.7129 308.66 65.4863 308.406 65.1973C308.156 64.9043 307.965 64.5625 307.832 64.1719C307.699 63.7812 307.633 63.3574 307.633 62.9004ZM308.717 62.7656V62.9004C308.717 63.2168 308.754 63.5156 308.828 63.7969C308.902 64.0742 309.014 64.3203 309.162 64.5352C309.314 64.75 309.504 64.9199 309.73 65.0449C309.957 65.166 310.221 65.2266 310.521 65.2266C310.818 65.2266 311.078 65.166 311.301 65.0449C311.527 64.9199 311.715 64.75 311.863 64.5352C312.012 64.3203 312.123 64.0742 312.197 63.7969C312.275 63.5156 312.314 63.2168 312.314 62.9004V62.7656C312.314 62.4531 312.275 62.1582 312.197 61.8809C312.123 61.5996 312.01 61.3516 311.857 61.1367C311.709 60.918 311.521 60.7461 311.295 60.6211C311.072 60.4961 310.811 60.4336 310.51 60.4336C310.213 60.4336 309.951 60.4961 309.725 60.6211C309.502 60.7461 309.314 60.918 309.162 61.1367C309.014 61.3516 308.902 61.5996 308.828 61.8809C308.754 62.1582 308.717 62.4531 308.717 62.7656ZM318.918 59.6602V66H317.828V59.6602H318.918ZM317.746 57.9785C317.746 57.8027 317.799 57.6543 317.904 57.5332C318.014 57.4121 318.174 57.3516 318.385 57.3516C318.592 57.3516 318.75 57.4121 318.859 57.5332C318.973 57.6543 319.029 57.8027 319.029 57.9785C319.029 58.1465 318.973 58.291 318.859 58.4121C318.75 58.5293 318.592 58.5879 318.385 58.5879C318.174 58.5879 318.014 58.5293 317.904 58.4121C317.799 58.291 317.746 58.1465 317.746 57.9785ZM321.742 61.0137V66H320.658V59.6602H321.684L321.742 61.0137ZM321.484 62.5898L321.033 62.5723C321.037 62.1387 321.102 61.7383 321.227 61.3711C321.352 61 321.527 60.6777 321.754 60.4043C321.98 60.1309 322.25 59.9199 322.562 59.7715C322.879 59.6191 323.229 59.543 323.611 59.543C323.924 59.543 324.205 59.5859 324.455 59.6719C324.705 59.7539 324.918 59.8867 325.094 60.0703C325.273 60.2539 325.41 60.4922 325.504 60.7852C325.598 61.0742 325.645 61.4277 325.645 61.8457V66H324.555V61.834C324.555 61.502 324.506 61.2363 324.408 61.0371C324.311 60.834 324.168 60.6875 323.98 60.5977C323.793 60.5039 323.562 60.457 323.289 60.457C323.02 60.457 322.773 60.5137 322.551 60.627C322.332 60.7402 322.143 60.8965 321.982 61.0957C321.826 61.2949 321.703 61.5234 321.613 61.7812C321.527 62.0352 321.484 62.3047 321.484 62.5898ZM328.469 59.6602V66H327.379V59.6602H328.469ZM327.297 57.9785C327.297 57.8027 327.35 57.6543 327.455 57.5332C327.564 57.4121 327.725 57.3516 327.936 57.3516C328.143 57.3516 328.301 57.4121 328.41 57.5332C328.523 57.6543 328.58 57.8027 328.58 57.9785C328.58 58.1465 328.523 58.291 328.41 58.4121C328.301 58.5293 328.143 58.5879 327.936 58.5879C327.725 58.5879 327.564 58.5293 327.455 58.4121C327.35 58.291 327.297 58.1465 327.297 57.9785ZM332.746 65.2266C333.004 65.2266 333.242 65.1738 333.461 65.0684C333.68 64.9629 333.859 64.8184 334 64.6348C334.141 64.4473 334.221 64.2344 334.24 63.9961H335.271C335.252 64.3711 335.125 64.7207 334.891 65.0449C334.66 65.3652 334.357 65.625 333.982 65.8242C333.607 66.0195 333.195 66.1172 332.746 66.1172C332.27 66.1172 331.854 66.0332 331.498 65.8652C331.146 65.6973 330.854 65.4668 330.619 65.1738C330.389 64.8809 330.215 64.5449 330.098 64.166C329.984 63.7832 329.928 63.3789 329.928 62.9531V62.707C329.928 62.2812 329.984 61.8789 330.098 61.5C330.215 61.1172 330.389 60.7793 330.619 60.4863C330.854 60.1934 331.146 59.9629 331.498 59.7949C331.854 59.627 332.27 59.543 332.746 59.543C333.242 59.543 333.676 59.6445 334.047 59.8477C334.418 60.0469 334.709 60.3203 334.92 60.668C335.135 61.0117 335.252 61.4023 335.271 61.8398H334.24C334.221 61.5781 334.146 61.3418 334.018 61.1309C333.893 60.9199 333.721 60.752 333.502 60.627C333.287 60.498 333.035 60.4336 332.746 60.4336C332.414 60.4336 332.135 60.5 331.908 60.6328C331.686 60.7617 331.508 60.9375 331.375 61.1602C331.246 61.3789 331.152 61.623 331.094 61.8926C331.039 62.1582 331.012 62.4297 331.012 62.707V62.9531C331.012 63.2305 331.039 63.5039 331.094 63.7734C331.148 64.043 331.24 64.2871 331.369 64.5059C331.502 64.7246 331.68 64.9004 331.902 65.0332C332.129 65.1621 332.41 65.2266 332.746 65.2266ZM337.668 59.6602V66H336.578V59.6602H337.668ZM336.496 57.9785C336.496 57.8027 336.549 57.6543 336.654 57.5332C336.764 57.4121 336.924 57.3516 337.135 57.3516C337.342 57.3516 337.5 57.4121 337.609 57.5332C337.723 57.6543 337.779 57.8027 337.779 57.9785C337.779 58.1465 337.723 58.291 337.609 58.4121C337.5 58.5293 337.342 58.5879 337.135 58.5879C336.924 58.5879 336.764 58.5293 336.654 58.4121C336.549 58.291 336.496 58.1465 336.496 57.9785ZM343.146 64.916V61.6523C343.146 61.4023 343.096 61.1855 342.994 61.002C342.896 60.8145 342.748 60.6699 342.549 60.5684C342.35 60.4668 342.104 60.416 341.811 60.416C341.537 60.416 341.297 60.4629 341.09 60.5566C340.887 60.6504 340.727 60.7734 340.609 60.9258C340.496 61.0781 340.439 61.2422 340.439 61.418H339.355C339.355 61.1914 339.414 60.9668 339.531 60.7441C339.648 60.5215 339.816 60.3203 340.035 60.1406C340.258 59.957 340.523 59.8125 340.832 59.707C341.145 59.5977 341.492 59.543 341.875 59.543C342.336 59.543 342.742 59.6211 343.094 59.7773C343.449 59.9336 343.727 60.1699 343.926 60.4863C344.129 60.7988 344.23 61.1914 344.23 61.6641V64.6172C344.23 64.8281 344.248 65.0527 344.283 65.291C344.322 65.5293 344.379 65.7344 344.453 65.9062V66H343.322C343.268 65.875 343.225 65.709 343.193 65.502C343.162 65.291 343.146 65.0957 343.146 64.916ZM343.334 62.1562L343.346 62.918H342.25C341.941 62.918 341.666 62.9434 341.424 62.9941C341.182 63.041 340.979 63.1133 340.814 63.2109C340.65 63.3086 340.525 63.4316 340.439 63.5801C340.354 63.7246 340.311 63.8945 340.311 64.0898C340.311 64.2891 340.355 64.4707 340.445 64.6348C340.535 64.7988 340.67 64.9297 340.85 65.0273C341.033 65.1211 341.258 65.168 341.523 65.168C341.855 65.168 342.148 65.0977 342.402 64.957C342.656 64.8164 342.857 64.6445 343.006 64.4414C343.158 64.2383 343.24 64.041 343.252 63.8496L343.715 64.3711C343.688 64.5352 343.613 64.7168 343.492 64.916C343.371 65.1152 343.209 65.3066 343.006 65.4902C342.807 65.6699 342.568 65.8203 342.291 65.9414C342.018 66.0586 341.709 66.1172 341.365 66.1172C340.936 66.1172 340.559 66.0332 340.234 65.8652C339.914 65.6973 339.664 65.4727 339.484 65.1914C339.309 64.9062 339.221 64.5879 339.221 64.2363C339.221 63.8965 339.287 63.5977 339.42 63.3398C339.553 63.0781 339.744 62.8613 339.994 62.6895C340.244 62.5137 340.545 62.3809 340.896 62.291C341.248 62.2012 341.641 62.1562 342.074 62.1562H343.334ZM349.932 64.7695V57H351.021V66H350.025L349.932 64.7695ZM345.666 62.9004V62.7773C345.666 62.293 345.725 61.8535 345.842 61.459C345.963 61.0605 346.133 60.7188 346.352 60.4336C346.574 60.1484 346.838 59.9297 347.143 59.7773C347.451 59.6211 347.795 59.543 348.174 59.543C348.572 59.543 348.92 59.6133 349.217 59.7539C349.518 59.8906 349.771 60.0918 349.979 60.3574C350.189 60.6191 350.355 60.9355 350.477 61.3066C350.598 61.6777 350.682 62.0977 350.729 62.5664V63.1055C350.686 63.5703 350.602 63.9883 350.477 64.3594C350.355 64.7305 350.189 65.0469 349.979 65.3086C349.771 65.5703 349.518 65.7715 349.217 65.9121C348.916 66.0488 348.564 66.1172 348.162 66.1172C347.791 66.1172 347.451 66.0371 347.143 65.877C346.838 65.7168 346.574 65.4922 346.352 65.2031C346.133 64.9141 345.963 64.5742 345.842 64.1836C345.725 63.7891 345.666 63.3613 345.666 62.9004ZM346.756 62.7773V62.9004C346.756 63.2168 346.787 63.5137 346.85 63.791C346.916 64.0684 347.018 64.3125 347.154 64.5234C347.291 64.7344 347.465 64.9004 347.676 65.0215C347.887 65.1387 348.139 65.1973 348.432 65.1973C348.791 65.1973 349.086 65.1211 349.316 64.9688C349.551 64.8164 349.738 64.6152 349.879 64.3652C350.02 64.1152 350.129 63.8438 350.207 63.5508V62.1387C350.16 61.9238 350.092 61.7168 350.002 61.5176C349.916 61.3145 349.803 61.1348 349.662 60.9785C349.525 60.8184 349.355 60.6914 349.152 60.5977C348.953 60.5039 348.717 60.457 348.443 60.457C348.146 60.457 347.891 60.5195 347.676 60.6445C347.465 60.7656 347.291 60.9336 347.154 61.1484C347.018 61.3594 346.916 61.6055 346.85 61.8867C346.787 62.1641 346.756 62.4609 346.756 62.7773ZM352.422 62.9004V62.7656C352.422 62.3086 352.488 61.8848 352.621 61.4941C352.754 61.0996 352.945 60.7578 353.195 60.4688C353.445 60.1758 353.748 59.9492 354.104 59.7891C354.459 59.625 354.857 59.543 355.299 59.543C355.744 59.543 356.145 59.625 356.5 59.7891C356.859 59.9492 357.164 60.1758 357.414 60.4688C357.668 60.7578 357.861 61.0996 357.994 61.4941C358.127 61.8848 358.193 62.3086 358.193 62.7656V62.9004C358.193 63.3574 358.127 63.7812 357.994 64.1719C357.861 64.5625 357.668 64.9043 357.414 65.1973C357.164 65.4863 356.861 65.7129 356.506 65.877C356.154 66.0371 355.756 66.1172 355.311 66.1172C354.865 66.1172 354.465 66.0371 354.109 65.877C353.754 65.7129 353.449 65.4863 353.195 65.1973C352.945 64.9043 352.754 64.5625 352.621 64.1719C352.488 63.7812 352.422 63.3574 352.422 62.9004ZM353.506 62.7656V62.9004C353.506 63.2168 353.543 63.5156 353.617 63.7969C353.691 64.0742 353.803 64.3203 353.951 64.5352C354.104 64.75 354.293 64.9199 354.52 65.0449C354.746 65.166 355.01 65.2266 355.311 65.2266C355.607 65.2266 355.867 65.166 356.09 65.0449C356.316 64.9199 356.504 64.75 356.652 64.5352C356.801 64.3203 356.912 64.0742 356.986 63.7969C357.064 63.5156 357.104 63.2168 357.104 62.9004V62.7656C357.104 62.4531 357.064 62.1582 356.986 61.8809C356.912 61.5996 356.799 61.3516 356.646 61.1367C356.498 60.918 356.311 60.7461 356.084 60.6211C355.861 60.4961 355.6 60.4336 355.299 60.4336C355.002 60.4336 354.74 60.4961 354.514 60.6211C354.291 60.7461 354.104 60.918 353.951 61.1367C353.803 61.3516 353.691 61.5996 353.617 61.8809C353.543 62.1582 353.506 62.4531 353.506 62.7656Z" fill="black"/>
</g>
<g clip-path="url(#clip3_116_907)">
<rect x="270" y="76.5" width="11" height="11" rx="2" fill="#0077B6"/>
<path d="M294.203 77.4688V86H293.072V77.4688H294.203ZM297.174 80.9199V86H296.084V79.6602H297.115L297.174 80.9199ZM296.951 82.5898L296.447 82.5723C296.451 82.1387 296.508 81.7383 296.617 81.3711C296.727 81 296.889 80.6777 297.104 80.4043C297.318 80.1309 297.586 79.9199 297.906 79.7715C298.227 79.6191 298.598 79.543 299.02 79.543C299.316 79.543 299.59 79.5859 299.84 79.6719C300.09 79.7539 300.307 79.8848 300.49 80.0645C300.674 80.2441 300.816 80.4746 300.918 80.7559C301.02 81.0371 301.07 81.377 301.07 81.7754V86H299.986V81.8281C299.986 81.4961 299.93 81.2305 299.816 81.0312C299.707 80.832 299.551 80.6875 299.348 80.5977C299.145 80.5039 298.906 80.457 298.633 80.457C298.312 80.457 298.045 80.5137 297.83 80.627C297.615 80.7402 297.443 80.8965 297.314 81.0957C297.186 81.2949 297.092 81.5234 297.033 81.7812C296.979 82.0352 296.951 82.3047 296.951 82.5898ZM301.059 81.9922L300.332 82.2148C300.336 81.8672 300.393 81.5332 300.502 81.2129C300.615 80.8926 300.777 80.6074 300.988 80.3574C301.203 80.1074 301.467 79.9102 301.779 79.7656C302.092 79.6172 302.449 79.543 302.852 79.543C303.191 79.543 303.492 79.5879 303.754 79.6777C304.02 79.7676 304.242 79.9062 304.422 80.0938C304.605 80.2773 304.744 80.5137 304.838 80.8027C304.932 81.0918 304.979 81.4355 304.979 81.834V86H303.889V81.8223C303.889 81.4668 303.832 81.1914 303.719 80.9961C303.609 80.7969 303.453 80.6582 303.25 80.5801C303.051 80.498 302.812 80.457 302.535 80.457C302.297 80.457 302.086 80.498 301.902 80.5801C301.719 80.6621 301.564 80.7754 301.439 80.9199C301.314 81.0605 301.219 81.2227 301.152 81.4062C301.09 81.5898 301.059 81.7852 301.059 81.9922ZM307.703 80.8789V88.4375H306.613V79.6602H307.609L307.703 80.8789ZM311.975 82.7773V82.9004C311.975 83.3613 311.92 83.7891 311.811 84.1836C311.701 84.5742 311.541 84.9141 311.33 85.2031C311.123 85.4922 310.867 85.7168 310.562 85.877C310.258 86.0371 309.908 86.1172 309.514 86.1172C309.111 86.1172 308.756 86.0508 308.447 85.918C308.139 85.7852 307.877 85.5918 307.662 85.3379C307.447 85.084 307.275 84.7793 307.146 84.4238C307.021 84.0684 306.936 83.668 306.889 83.2227V82.5664C306.936 82.0977 307.023 81.6777 307.152 81.3066C307.281 80.9355 307.451 80.6191 307.662 80.3574C307.877 80.0918 308.137 79.8906 308.441 79.7539C308.746 79.6133 309.098 79.543 309.496 79.543C309.895 79.543 310.248 79.6211 310.557 79.7773C310.865 79.9297 311.125 80.1484 311.336 80.4336C311.547 80.7188 311.705 81.0605 311.811 81.459C311.92 81.8535 311.975 82.293 311.975 82.7773ZM310.885 82.9004V82.7773C310.885 82.4609 310.852 82.1641 310.785 81.8867C310.719 81.6055 310.615 81.3594 310.475 81.1484C310.338 80.9336 310.162 80.7656 309.947 80.6445C309.732 80.5195 309.477 80.457 309.18 80.457C308.906 80.457 308.668 80.5039 308.465 80.5977C308.266 80.6914 308.096 80.8184 307.955 80.9785C307.814 81.1348 307.699 81.3145 307.609 81.5176C307.523 81.7168 307.459 81.9238 307.416 82.1387V83.6562C307.494 83.9297 307.604 84.1875 307.744 84.4297C307.885 84.668 308.072 84.8613 308.307 85.0098C308.541 85.1543 308.836 85.2266 309.191 85.2266C309.484 85.2266 309.736 85.166 309.947 85.0449C310.162 84.9199 310.338 84.75 310.475 84.5352C310.615 84.3203 310.719 84.0742 310.785 83.7969C310.852 83.5156 310.885 83.2168 310.885 82.9004ZM315.988 86.1172C315.547 86.1172 315.146 86.043 314.787 85.8945C314.432 85.7422 314.125 85.5293 313.867 85.2559C313.613 84.9824 313.418 84.6582 313.281 84.2832C313.145 83.9082 313.076 83.498 313.076 83.0527V82.8066C313.076 82.291 313.152 81.832 313.305 81.4297C313.457 81.0234 313.664 80.6797 313.926 80.3984C314.188 80.1172 314.484 79.9043 314.816 79.7598C315.148 79.6152 315.492 79.543 315.848 79.543C316.301 79.543 316.691 79.6211 317.02 79.7773C317.352 79.9336 317.623 80.1523 317.834 80.4336C318.045 80.7109 318.201 81.0391 318.303 81.418C318.404 81.793 318.455 82.2031 318.455 82.6484V83.1348H313.721V82.25H317.371V82.168C317.355 81.8867 317.297 81.6133 317.195 81.3477C317.098 81.082 316.941 80.8633 316.727 80.6914C316.512 80.5195 316.219 80.4336 315.848 80.4336C315.602 80.4336 315.375 80.4863 315.168 80.5918C314.961 80.6934 314.783 80.8457 314.635 81.0488C314.486 81.252 314.371 81.5 314.289 81.793C314.207 82.0859 314.166 82.4238 314.166 82.8066V83.0527C314.166 83.3535 314.207 83.6367 314.289 83.9023C314.375 84.1641 314.498 84.3945 314.658 84.5938C314.822 84.793 315.02 84.9492 315.25 85.0625C315.484 85.1758 315.75 85.2324 316.047 85.2324C316.43 85.2324 316.754 85.1543 317.02 84.998C317.285 84.8418 317.518 84.6328 317.717 84.3711L318.373 84.8926C318.236 85.0996 318.062 85.2969 317.852 85.4844C317.641 85.6719 317.381 85.8242 317.072 85.9414C316.768 86.0586 316.406 86.1172 315.988 86.1172ZM323.717 84.7695V77H324.807V86H323.811L323.717 84.7695ZM319.451 82.9004V82.7773C319.451 82.293 319.51 81.8535 319.627 81.459C319.748 81.0605 319.918 80.7188 320.137 80.4336C320.359 80.1484 320.623 79.9297 320.928 79.7773C321.236 79.6211 321.58 79.543 321.959 79.543C322.357 79.543 322.705 79.6133 323.002 79.7539C323.303 79.8906 323.557 80.0918 323.764 80.3574C323.975 80.6191 324.141 80.9355 324.262 81.3066C324.383 81.6777 324.467 82.0977 324.514 82.5664V83.1055C324.471 83.5703 324.387 83.9883 324.262 84.3594C324.141 84.7305 323.975 85.0469 323.764 85.3086C323.557 85.5703 323.303 85.7715 323.002 85.9121C322.701 86.0488 322.35 86.1172 321.947 86.1172C321.576 86.1172 321.236 86.0371 320.928 85.877C320.623 85.7168 320.359 85.4922 320.137 85.2031C319.918 84.9141 319.748 84.5742 319.627 84.1836C319.51 83.7891 319.451 83.3613 319.451 82.9004ZM320.541 82.7773V82.9004C320.541 83.2168 320.572 83.5137 320.635 83.791C320.701 84.0684 320.803 84.3125 320.939 84.5234C321.076 84.7344 321.25 84.9004 321.461 85.0215C321.672 85.1387 321.924 85.1973 322.217 85.1973C322.576 85.1973 322.871 85.1211 323.102 84.9688C323.336 84.8164 323.523 84.6152 323.664 84.3652C323.805 84.1152 323.914 83.8438 323.992 83.5508V82.1387C323.945 81.9238 323.877 81.7168 323.787 81.5176C323.701 81.3145 323.588 81.1348 323.447 80.9785C323.311 80.8184 323.141 80.6914 322.938 80.5977C322.738 80.5039 322.502 80.457 322.229 80.457C321.932 80.457 321.676 80.5195 321.461 80.6445C321.25 80.7656 321.076 80.9336 320.939 81.1484C320.803 81.3594 320.701 81.6055 320.635 81.8867C320.572 82.1641 320.541 82.4609 320.541 82.7773ZM327.672 79.6602V86H326.582V79.6602H327.672ZM326.5 77.9785C326.5 77.8027 326.553 77.6543 326.658 77.5332C326.768 77.4121 326.928 77.3516 327.139 77.3516C327.346 77.3516 327.504 77.4121 327.613 77.5332C327.727 77.6543 327.783 77.8027 327.783 77.9785C327.783 78.1465 327.727 78.291 327.613 78.4121C327.504 78.5293 327.346 78.5879 327.139 78.5879C326.928 78.5879 326.768 78.5293 326.658 78.4121C326.553 78.291 326.5 78.1465 326.5 77.9785ZM333.408 84.7695V77H334.498V86H333.502L333.408 84.7695ZM329.143 82.9004V82.7773C329.143 82.293 329.201 81.8535 329.318 81.459C329.439 81.0605 329.609 80.7188 329.828 80.4336C330.051 80.1484 330.314 79.9297 330.619 79.7773C330.928 79.6211 331.271 79.543 331.65 79.543C332.049 79.543 332.396 79.6133 332.693 79.7539C332.994 79.8906 333.248 80.0918 333.455 80.3574C333.666 80.6191 333.832 80.9355 333.953 81.3066C334.074 81.6777 334.158 82.0977 334.205 82.5664V83.1055C334.162 83.5703 334.078 83.9883 333.953 84.3594C333.832 84.7305 333.666 85.0469 333.455 85.3086C333.248 85.5703 332.994 85.7715 332.693 85.9121C332.393 86.0488 332.041 86.1172 331.639 86.1172C331.268 86.1172 330.928 86.0371 330.619 85.877C330.314 85.7168 330.051 85.4922 329.828 85.2031C329.609 84.9141 329.439 84.5742 329.318 84.1836C329.201 83.7891 329.143 83.3613 329.143 82.9004ZM330.232 82.7773V82.9004C330.232 83.2168 330.264 83.5137 330.326 83.791C330.393 84.0684 330.494 84.3125 330.631 84.5234C330.768 84.7344 330.941 84.9004 331.152 85.0215C331.363 85.1387 331.615 85.1973 331.908 85.1973C332.268 85.1973 332.562 85.1211 332.793 84.9688C333.027 84.8164 333.215 84.6152 333.355 84.3652C333.496 84.1152 333.605 83.8438 333.684 83.5508V82.1387C333.637 81.9238 333.568 81.7168 333.479 81.5176C333.393 81.3145 333.279 81.1348 333.139 80.9785C333.002 80.8184 332.832 80.6914 332.629 80.5977C332.43 80.5039 332.193 80.457 331.92 80.457C331.623 80.457 331.367 80.5195 331.152 80.6445C330.941 80.7656 330.768 80.9336 330.631 81.1484C330.494 81.3594 330.393 81.6055 330.326 81.8867C330.264 82.1641 330.232 82.4609 330.232 82.7773ZM335.898 82.9004V82.7656C335.898 82.3086 335.965 81.8848 336.098 81.4941C336.23 81.0996 336.422 80.7578 336.672 80.4688C336.922 80.1758 337.225 79.9492 337.58 79.7891C337.936 79.625 338.334 79.543 338.775 79.543C339.221 79.543 339.621 79.625 339.977 79.7891C340.336 79.9492 340.641 80.1758 340.891 80.4688C341.145 80.7578 341.338 81.0996 341.471 81.4941C341.604 81.8848 341.67 82.3086 341.67 82.7656V82.9004C341.67 83.3574 341.604 83.7812 341.471 84.1719C341.338 84.5625 341.145 84.9043 340.891 85.1973C340.641 85.4863 340.338 85.7129 339.982 85.877C339.631 86.0371 339.232 86.1172 338.787 86.1172C338.342 86.1172 337.941 86.0371 337.586 85.877C337.23 85.7129 336.926 85.4863 336.672 85.1973C336.422 84.9043 336.23 84.5625 336.098 84.1719C335.965 83.7812 335.898 83.3574 335.898 82.9004ZM336.982 82.7656V82.9004C336.982 83.2168 337.02 83.5156 337.094 83.7969C337.168 84.0742 337.279 84.3203 337.428 84.5352C337.58 84.75 337.77 84.9199 337.996 85.0449C338.223 85.166 338.486 85.2266 338.787 85.2266C339.084 85.2266 339.344 85.166 339.566 85.0449C339.793 84.9199 339.98 84.75 340.129 84.5352C340.277 84.3203 340.389 84.0742 340.463 83.7969C340.541 83.5156 340.58 83.2168 340.58 82.9004V82.7656C340.58 82.4531 340.541 82.1582 340.463 81.8809C340.389 81.5996 340.275 81.3516 340.123 81.1367C339.975 80.918 339.787 80.7461 339.561 80.6211C339.338 80.4961 339.076 80.4336 338.775 80.4336C338.479 80.4336 338.217 80.4961 337.99 80.6211C337.768 80.7461 337.58 80.918 337.428 81.1367C337.279 81.3516 337.168 81.5996 337.094 81.8809C337.02 82.1582 336.982 82.4531 336.982 82.7656Z" fill="black"/>
</g>
<g clip-path="url(#clip4_116_907)">
<rect x="270" y="96.5" width="11" height="11" rx="2" fill="#90E0EF"/>
<path d="M298.141 103.287H299.266C299.207 103.826 299.053 104.309 298.803 104.734C298.553 105.16 298.199 105.498 297.742 105.748C297.285 105.994 296.715 106.117 296.031 106.117C295.531 106.117 295.076 106.023 294.666 105.836C294.26 105.648 293.91 105.383 293.617 105.039C293.324 104.691 293.098 104.275 292.938 103.791C292.781 103.303 292.703 102.76 292.703 102.162V101.312C292.703 100.715 292.781 100.174 292.938 99.6895C293.098 99.2012 293.326 98.7832 293.623 98.4355C293.924 98.0879 294.285 97.8203 294.707 97.6328C295.129 97.4453 295.604 97.3516 296.131 97.3516C296.775 97.3516 297.32 97.4727 297.766 97.7148C298.211 97.957 298.557 98.293 298.803 98.7227C299.053 99.1484 299.207 99.6426 299.266 100.205H298.141C298.086 99.8066 297.984 99.4648 297.836 99.1797C297.688 98.8906 297.477 98.668 297.203 98.5117C296.93 98.3555 296.572 98.2773 296.131 98.2773C295.752 98.2773 295.418 98.3496 295.129 98.4941C294.844 98.6387 294.604 98.8438 294.408 99.1094C294.217 99.375 294.072 99.6934 293.975 100.064C293.877 100.436 293.828 100.848 293.828 101.301V102.162C293.828 102.58 293.871 102.973 293.957 103.34C294.047 103.707 294.182 104.029 294.361 104.307C294.541 104.584 294.77 104.803 295.047 104.963C295.324 105.119 295.652 105.197 296.031 105.197C296.512 105.197 296.895 105.121 297.18 104.969C297.465 104.816 297.68 104.598 297.824 104.312C297.973 104.027 298.078 103.686 298.141 103.287ZM300.355 102.9V102.766C300.355 102.309 300.422 101.885 300.555 101.494C300.688 101.1 300.879 100.758 301.129 100.469C301.379 100.176 301.682 99.9492 302.037 99.7891C302.393 99.625 302.791 99.543 303.232 99.543C303.678 99.543 304.078 99.625 304.434 99.7891C304.793 99.9492 305.098 100.176 305.348 100.469C305.602 100.758 305.795 101.1 305.928 101.494C306.061 101.885 306.127 102.309 306.127 102.766V102.9C306.127 103.357 306.061 103.781 305.928 104.172C305.795 104.562 305.602 104.904 305.348 105.197C305.098 105.486 304.795 105.713 304.439 105.877C304.088 106.037 303.689 106.117 303.244 106.117C302.799 106.117 302.398 106.037 302.043 105.877C301.688 105.713 301.383 105.486 301.129 105.197C300.879 104.904 300.688 104.562 300.555 104.172C300.422 103.781 300.355 103.357 300.355 102.9ZM301.439 102.766V102.9C301.439 103.217 301.477 103.516 301.551 103.797C301.625 104.074 301.736 104.32 301.885 104.535C302.037 104.75 302.227 104.92 302.453 105.045C302.68 105.166 302.943 105.227 303.244 105.227C303.541 105.227 303.801 105.166 304.023 105.045C304.25 104.92 304.438 104.75 304.586 104.535C304.734 104.32 304.846 104.074 304.92 103.797C304.998 103.516 305.037 103.217 305.037 102.9V102.766C305.037 102.453 304.998 102.158 304.92 101.881C304.846 101.6 304.732 101.352 304.58 101.137C304.432 100.918 304.244 100.746 304.018 100.621C303.795 100.496 303.533 100.434 303.232 100.434C302.936 100.434 302.674 100.496 302.447 100.621C302.225 100.746 302.037 100.918 301.885 101.137C301.736 101.352 301.625 101.6 301.551 101.881C301.477 102.158 301.439 102.453 301.439 102.766ZM308.57 101.014V106H307.486V99.6602H308.512L308.57 101.014ZM308.312 102.59L307.861 102.572C307.865 102.139 307.93 101.738 308.055 101.371C308.18 101 308.355 100.678 308.582 100.404C308.809 100.131 309.078 99.9199 309.391 99.7715C309.707 99.6191 310.057 99.543 310.439 99.543C310.752 99.543 311.033 99.5859 311.283 99.6719C311.533 99.7539 311.746 99.8867 311.922 100.07C312.102 100.254 312.238 100.492 312.332 100.785C312.426 101.074 312.473 101.428 312.473 101.846V106H311.383V101.834C311.383 101.502 311.334 101.236 311.236 101.037C311.139 100.834 310.996 100.688 310.809 100.598C310.621 100.504 310.391 100.457 310.117 100.457C309.848 100.457 309.602 100.514 309.379 100.627C309.16 100.74 308.971 100.896 308.811 101.096C308.654 101.295 308.531 101.523 308.441 101.781C308.355 102.035 308.312 102.305 308.312 102.59ZM316.656 105.227C316.914 105.227 317.152 105.174 317.371 105.068C317.59 104.963 317.77 104.818 317.91 104.635C318.051 104.447 318.131 104.234 318.15 103.996H319.182C319.162 104.371 319.035 104.721 318.801 105.045C318.57 105.365 318.268 105.625 317.893 105.824C317.518 106.02 317.105 106.117 316.656 106.117C316.18 106.117 315.764 106.033 315.408 105.865C315.057 105.697 314.764 105.467 314.529 105.174C314.299 104.881 314.125 104.545 314.008 104.166C313.895 103.783 313.838 103.379 313.838 102.953V102.707C313.838 102.281 313.895 101.879 314.008 101.5C314.125 101.117 314.299 100.779 314.529 100.486C314.764 100.193 315.057 99.9629 315.408 99.7949C315.764 99.627 316.18 99.543 316.656 99.543C317.152 99.543 317.586 99.6445 317.957 99.8477C318.328 100.047 318.619 100.32 318.83 100.668C319.045 101.012 319.162 101.402 319.182 101.84H318.15C318.131 101.578 318.057 101.342 317.928 101.131C317.803 100.92 317.631 100.752 317.412 100.627C317.197 100.498 316.945 100.434 316.656 100.434C316.324 100.434 316.045 100.5 315.818 100.633C315.596 100.762 315.418 100.938 315.285 101.16C315.156 101.379 315.062 101.623 315.004 101.893C314.949 102.158 314.922 102.43 314.922 102.707V102.953C314.922 103.23 314.949 103.504 315.004 103.773C315.059 104.043 315.15 104.287 315.279 104.506C315.412 104.725 315.59 104.9 315.812 105.033C316.039 105.162 316.32 105.227 316.656 105.227ZM321.578 97V106H320.488V97H321.578ZM327.197 104.535V99.6602H328.287V106H327.25L327.197 104.535ZM327.402 103.199L327.854 103.188C327.854 103.609 327.809 104 327.719 104.359C327.633 104.715 327.492 105.023 327.297 105.285C327.102 105.547 326.846 105.752 326.529 105.9C326.213 106.045 325.828 106.117 325.375 106.117C325.066 106.117 324.783 106.072 324.525 105.982C324.271 105.893 324.053 105.754 323.869 105.566C323.686 105.379 323.543 105.135 323.441 104.834C323.344 104.533 323.295 104.172 323.295 103.75V99.6602H324.379V103.762C324.379 104.047 324.41 104.283 324.473 104.471C324.539 104.654 324.627 104.801 324.736 104.91C324.85 105.016 324.975 105.09 325.111 105.133C325.252 105.176 325.396 105.197 325.545 105.197C326.006 105.197 326.371 105.109 326.641 104.934C326.91 104.754 327.104 104.514 327.221 104.213C327.342 103.908 327.402 103.57 327.402 103.199ZM331.111 99.6602V106H330.027V99.6602H331.111ZM329.992 98.7344L331.129 97.0117H332.436L330.865 98.7344H329.992ZM336.912 104.77V97H338.002V106H337.006L336.912 104.77ZM332.646 102.9V102.777C332.646 102.293 332.705 101.854 332.822 101.459C332.943 101.061 333.113 100.719 333.332 100.434C333.555 100.148 333.818 99.9297 334.123 99.7773C334.432 99.6211 334.775 99.543 335.154 99.543C335.553 99.543 335.9 99.6133 336.197 99.7539C336.498 99.8906 336.752 100.092 336.959 100.357C337.17 100.619 337.336 100.936 337.457 101.307C337.578 101.678 337.662 102.098 337.709 102.566V103.105C337.666 103.57 337.582 103.988 337.457 104.359C337.336 104.73 337.17 105.047 336.959 105.309C336.752 105.57 336.498 105.771 336.197 105.912C335.896 106.049 335.545 106.117 335.143 106.117C334.771 106.117 334.432 106.037 334.123 105.877C333.818 105.717 333.555 105.492 333.332 105.203C333.113 104.914 332.943 104.574 332.822 104.184C332.705 103.789 332.646 103.361 332.646 102.9ZM333.736 102.777V102.9C333.736 103.217 333.768 103.514 333.83 103.791C333.896 104.068 333.998 104.312 334.135 104.523C334.271 104.734 334.445 104.9 334.656 105.021C334.867 105.139 335.119 105.197 335.412 105.197C335.771 105.197 336.066 105.121 336.297 104.969C336.531 104.816 336.719 104.615 336.859 104.365C337 104.115 337.109 103.844 337.188 103.551V102.139C337.141 101.924 337.072 101.717 336.982 101.518C336.896 101.314 336.783 101.135 336.643 100.979C336.506 100.818 336.336 100.691 336.133 100.598C335.934 100.504 335.697 100.457 335.424 100.457C335.127 100.457 334.871 100.52 334.656 100.645C334.445 100.766 334.271 100.934 334.135 101.148C333.998 101.359 333.896 101.605 333.83 101.887C333.768 102.164 333.736 102.461 333.736 102.777ZM339.402 102.9V102.766C339.402 102.309 339.469 101.885 339.602 101.494C339.734 101.1 339.926 100.758 340.176 100.469C340.426 100.176 340.729 99.9492 341.084 99.7891C341.439 99.625 341.838 99.543 342.279 99.543C342.725 99.543 343.125 99.625 343.48 99.7891C343.84 99.9492 344.145 100.176 344.395 100.469C344.648 100.758 344.842 101.1 344.975 101.494C345.107 101.885 345.174 102.309 345.174 102.766V102.9C345.174 103.357 345.107 103.781 344.975 104.172C344.842 104.562 344.648 104.904 344.395 105.197C344.145 105.486 343.842 105.713 343.486 105.877C343.135 106.037 342.736 106.117 342.291 106.117C341.846 106.117 341.445 106.037 341.09 105.877C340.734 105.713 340.43 105.486 340.176 105.197C339.926 104.904 339.734 104.562 339.602 104.172C339.469 103.781 339.402 103.357 339.402 102.9ZM340.486 102.766V102.9C340.486 103.217 340.523 103.516 340.598 103.797C340.672 104.074 340.783 104.32 340.932 104.535C341.084 104.75 341.273 104.92 341.5 105.045C341.727 105.166 341.99 105.227 342.291 105.227C342.588 105.227 342.848 105.166 343.07 105.045C343.297 104.92 343.484 104.75 343.633 104.535C343.781 104.32 343.893 104.074 343.967 103.797C344.045 103.516 344.084 103.217 344.084 102.9V102.766C344.084 102.453 344.045 102.158 343.967 101.881C343.893 101.6 343.779 101.352 343.627 101.137C343.479 100.918 343.291 100.746 343.064 100.621C342.842 100.496 342.58 100.434 342.279 100.434C341.982 100.434 341.721 100.496 341.494 100.621C341.271 100.746 341.084 100.918 340.932 101.137C340.783 101.352 340.672 101.6 340.598 101.881C340.523 102.158 340.486 102.453 340.486 102.766Z" fill="black"/>
</g>
<g clip-path="url(#clip5_116_907)">
<rect x="270" y="116.5" width="11" height="11" rx="2" fill="#D0D5DD"/>
<path d="M298.41 125.08V126H293.893V125.08H298.41ZM294.121 117.469V126H292.99V117.469H294.121ZM297.812 121.137V122.057H293.893V121.137H297.812ZM298.352 117.469V118.395H293.893V117.469H298.352ZM300.73 121.014V126H299.646V119.66H300.672L300.73 121.014ZM300.473 122.59L300.021 122.572C300.025 122.139 300.09 121.738 300.215 121.371C300.34 121 300.516 120.678 300.742 120.404C300.969 120.131 301.238 119.92 301.551 119.771C301.867 119.619 302.217 119.543 302.6 119.543C302.912 119.543 303.193 119.586 303.443 119.672C303.693 119.754 303.906 119.887 304.082 120.07C304.262 120.254 304.398 120.492 304.492 120.785C304.586 121.074 304.633 121.428 304.633 121.846V126H303.543V121.834C303.543 121.502 303.494 121.236 303.396 121.037C303.299 120.834 303.156 120.688 302.969 120.598C302.781 120.504 302.551 120.457 302.277 120.457C302.008 120.457 301.762 120.514 301.539 120.627C301.32 120.74 301.131 120.896 300.971 121.096C300.814 121.295 300.691 121.523 300.602 121.781C300.516 122.035 300.473 122.305 300.473 122.59ZM308.816 125.227C309.074 125.227 309.312 125.174 309.531 125.068C309.75 124.963 309.93 124.818 310.07 124.635C310.211 124.447 310.291 124.234 310.311 123.996H311.342C311.322 124.371 311.195 124.721 310.961 125.045C310.73 125.365 310.428 125.625 310.053 125.824C309.678 126.02 309.266 126.117 308.816 126.117C308.34 126.117 307.924 126.033 307.568 125.865C307.217 125.697 306.924 125.467 306.689 125.174C306.459 124.881 306.285 124.545 306.168 124.166C306.055 123.783 305.998 123.379 305.998 122.953V122.707C305.998 122.281 306.055 121.879 306.168 121.5C306.285 121.117 306.459 120.779 306.689 120.486C306.924 120.193 307.217 119.963 307.568 119.795C307.924 119.627 308.34 119.543 308.816 119.543C309.312 119.543 309.746 119.645 310.117 119.848C310.488 120.047 310.779 120.32 310.99 120.668C311.205 121.012 311.322 121.402 311.342 121.84H310.311C310.291 121.578 310.217 121.342 310.088 121.131C309.963 120.92 309.791 120.752 309.572 120.627C309.357 120.498 309.105 120.434 308.816 120.434C308.484 120.434 308.205 120.5 307.979 120.633C307.756 120.762 307.578 120.938 307.445 121.16C307.316 121.379 307.223 121.623 307.164 121.893C307.109 122.158 307.082 122.43 307.082 122.707V122.953C307.082 123.23 307.109 123.504 307.164 123.773C307.219 124.043 307.311 124.287 307.439 124.506C307.572 124.725 307.75 124.9 307.973 125.033C308.199 125.162 308.48 125.227 308.816 125.227ZM315.191 126.117C314.75 126.117 314.35 126.043 313.99 125.895C313.635 125.742 313.328 125.529 313.07 125.256C312.816 124.982 312.621 124.658 312.484 124.283C312.348 123.908 312.279 123.498 312.279 123.053V122.807C312.279 122.291 312.355 121.832 312.508 121.43C312.66 121.023 312.867 120.68 313.129 120.398C313.391 120.117 313.688 119.904 314.02 119.76C314.352 119.615 314.695 119.543 315.051 119.543C315.504 119.543 315.895 119.621 316.223 119.777C316.555 119.934 316.826 120.152 317.037 120.434C317.248 120.711 317.404 121.039 317.506 121.418C317.607 121.793 317.658 122.203 317.658 122.648V123.135H312.924V122.25H316.574V122.168C316.559 121.887 316.5 121.613 316.398 121.348C316.301 121.082 316.145 120.863 315.93 120.691C315.715 120.52 315.422 120.434 315.051 120.434C314.805 120.434 314.578 120.486 314.371 120.592C314.164 120.693 313.986 120.846 313.838 121.049C313.689 121.252 313.574 121.5 313.492 121.793C313.41 122.086 313.369 122.424 313.369 122.807V123.053C313.369 123.354 313.41 123.637 313.492 123.902C313.578 124.164 313.701 124.395 313.861 124.594C314.025 124.793 314.223 124.949 314.453 125.062C314.688 125.176 314.953 125.232 315.25 125.232C315.633 125.232 315.957 125.154 316.223 124.998C316.488 124.842 316.721 124.633 316.92 124.371L317.576 124.893C317.439 125.1 317.266 125.297 317.055 125.484C316.844 125.672 316.584 125.824 316.275 125.941C315.971 126.059 315.609 126.117 315.191 126.117ZM320.008 120.656V126H318.924V119.66H319.979L320.008 120.656ZM321.988 119.625L321.982 120.633C321.893 120.613 321.807 120.602 321.725 120.598C321.646 120.59 321.557 120.586 321.455 120.586C321.205 120.586 320.984 120.625 320.793 120.703C320.602 120.781 320.439 120.891 320.307 121.031C320.174 121.172 320.068 121.34 319.99 121.535C319.916 121.727 319.867 121.938 319.844 122.168L319.539 122.344C319.539 121.961 319.576 121.602 319.65 121.266C319.729 120.93 319.848 120.633 320.008 120.375C320.168 120.113 320.371 119.91 320.617 119.766C320.867 119.617 321.164 119.543 321.508 119.543C321.586 119.543 321.676 119.553 321.777 119.572C321.879 119.588 321.949 119.605 321.988 119.625ZM324.074 120.656V126H322.99V119.66H324.045L324.074 120.656ZM326.055 119.625L326.049 120.633C325.959 120.613 325.873 120.602 325.791 120.598C325.713 120.59 325.623 120.586 325.521 120.586C325.271 120.586 325.051 120.625 324.859 120.703C324.668 120.781 324.506 120.891 324.373 121.031C324.24 121.172 324.135 121.34 324.057 121.535C323.982 121.727 323.934 121.938 323.91 122.168L323.605 122.344C323.605 121.961 323.643 121.602 323.717 121.266C323.795 120.93 323.914 120.633 324.074 120.375C324.234 120.113 324.438 119.91 324.684 119.766C324.934 119.617 325.23 119.543 325.574 119.543C325.652 119.543 325.742 119.553 325.844 119.572C325.945 119.588 326.016 119.605 326.055 119.625ZM330.561 124.916V121.652C330.561 121.402 330.51 121.186 330.408 121.002C330.311 120.814 330.162 120.67 329.963 120.568C329.764 120.467 329.518 120.416 329.225 120.416C328.951 120.416 328.711 120.463 328.504 120.557C328.301 120.65 328.141 120.773 328.023 120.926C327.91 121.078 327.854 121.242 327.854 121.418H326.77C326.77 121.191 326.828 120.967 326.945 120.744C327.062 120.521 327.23 120.32 327.449 120.141C327.672 119.957 327.938 119.812 328.246 119.707C328.559 119.598 328.906 119.543 329.289 119.543C329.75 119.543 330.156 119.621 330.508 119.777C330.863 119.934 331.141 120.17 331.34 120.486C331.543 120.799 331.645 121.191 331.645 121.664V124.617C331.645 124.828 331.662 125.053 331.697 125.291C331.736 125.529 331.793 125.734 331.867 125.906V126H330.736C330.682 125.875 330.639 125.709 330.607 125.502C330.576 125.291 330.561 125.096 330.561 124.916ZM330.748 122.156L330.76 122.918H329.664C329.355 122.918 329.08 122.943 328.838 122.994C328.596 123.041 328.393 123.113 328.229 123.211C328.064 123.309 327.939 123.432 327.854 123.58C327.768 123.725 327.725 123.895 327.725 124.09C327.725 124.289 327.77 124.471 327.859 124.635C327.949 124.799 328.084 124.93 328.264 125.027C328.447 125.121 328.672 125.168 328.938 125.168C329.27 125.168 329.562 125.098 329.816 124.957C330.07 124.816 330.271 124.645 330.42 124.441C330.572 124.238 330.654 124.041 330.666 123.85L331.129 124.371C331.102 124.535 331.027 124.717 330.906 124.916C330.785 125.115 330.623 125.307 330.42 125.49C330.221 125.67 329.982 125.82 329.705 125.941C329.432 126.059 329.123 126.117 328.779 126.117C328.35 126.117 327.973 126.033 327.648 125.865C327.328 125.697 327.078 125.473 326.898 125.191C326.723 124.906 326.635 124.588 326.635 124.236C326.635 123.896 326.701 123.598 326.834 123.34C326.967 123.078 327.158 122.861 327.408 122.689C327.658 122.514 327.959 122.381 328.311 122.291C328.662 122.201 329.055 122.156 329.488 122.156H330.748ZM337.346 124.77V117H338.436V126H337.439L337.346 124.77ZM333.08 122.9V122.777C333.08 122.293 333.139 121.854 333.256 121.459C333.377 121.061 333.547 120.719 333.766 120.434C333.988 120.148 334.252 119.93 334.557 119.777C334.865 119.621 335.209 119.543 335.588 119.543C335.986 119.543 336.334 119.613 336.631 119.754C336.932 119.891 337.186 120.092 337.393 120.357C337.604 120.619 337.77 120.936 337.891 121.307C338.012 121.678 338.096 122.098 338.143 122.566V123.105C338.1 123.57 338.016 123.988 337.891 124.359C337.77 124.73 337.604 125.047 337.393 125.309C337.186 125.57 336.932 125.771 336.631 125.912C336.33 126.049 335.979 126.117 335.576 126.117C335.205 126.117 334.865 126.037 334.557 125.877C334.252 125.717 333.988 125.492 333.766 125.203C333.547 124.914 333.377 124.574 333.256 124.184C333.139 123.789 333.08 123.361 333.08 122.9ZM334.17 122.777V122.9C334.17 123.217 334.201 123.514 334.264 123.791C334.33 124.068 334.432 124.312 334.568 124.523C334.705 124.734 334.879 124.9 335.09 125.021C335.301 125.139 335.553 125.197 335.846 125.197C336.205 125.197 336.5 125.121 336.73 124.969C336.965 124.816 337.152 124.615 337.293 124.365C337.434 124.115 337.543 123.844 337.621 123.551V122.139C337.574 121.924 337.506 121.717 337.416 121.518C337.33 121.314 337.217 121.135 337.076 120.979C336.939 120.818 336.77 120.691 336.566 120.598C336.367 120.504 336.131 120.457 335.857 120.457C335.561 120.457 335.305 120.52 335.09 120.645C334.879 120.766 334.705 120.934 334.568 121.148C334.432 121.359 334.33 121.605 334.264 121.887C334.201 122.164 334.17 122.461 334.17 122.777ZM341.207 120.879V128.438H340.117V119.66H341.113L341.207 120.879ZM345.479 122.777V122.9C345.479 123.361 345.424 123.789 345.314 124.184C345.205 124.574 345.045 124.914 344.834 125.203C344.627 125.492 344.371 125.717 344.066 125.877C343.762 126.037 343.412 126.117 343.018 126.117C342.615 126.117 342.26 126.051 341.951 125.918C341.643 125.785 341.381 125.592 341.166 125.338C340.951 125.084 340.779 124.779 340.65 124.424C340.525 124.068 340.439 123.668 340.393 123.223V122.566C340.439 122.098 340.527 121.678 340.656 121.307C340.785 120.936 340.955 120.619 341.166 120.357C341.381 120.092 341.641 119.891 341.945 119.754C342.25 119.613 342.602 119.543 343 119.543C343.398 119.543 343.752 119.621 344.061 119.777C344.369 119.93 344.629 120.148 344.84 120.434C345.051 120.719 345.209 121.061 345.314 121.459C345.424 121.854 345.479 122.293 345.479 122.777ZM344.389 122.9V122.777C344.389 122.461 344.355 122.164 344.289 121.887C344.223 121.605 344.119 121.359 343.979 121.148C343.842 120.934 343.666 120.766 343.451 120.645C343.236 120.52 342.98 120.457 342.684 120.457C342.41 120.457 342.172 120.504 341.969 120.598C341.77 120.691 341.6 120.818 341.459 120.979C341.318 121.135 341.203 121.314 341.113 121.518C341.027 121.717 340.963 121.924 340.92 122.139V123.656C340.998 123.93 341.107 124.188 341.248 124.43C341.389 124.668 341.576 124.861 341.811 125.01C342.045 125.154 342.34 125.227 342.695 125.227C342.988 125.227 343.24 125.166 343.451 125.045C343.666 124.92 343.842 124.75 343.979 124.535C344.119 124.32 344.223 124.074 344.289 123.797C344.355 123.516 344.389 123.217 344.389 122.9Z" fill="black"/>
</g>
</g>
<defs>
<clipPath id="clip0_116_907">
<rect width="380" height="164" fill="white"/>
</clipPath>
<clipPath id="clip1_116_907">
<rect width="94" height="14" fill="white" transform="translate(270 35)"/>
</clipPath>
<clipPath id="clip2_116_907">
<rect width="89" height="14" fill="white" transform="translate(270 55)"/>
</clipPath>
<clipPath id="clip3_116_907">
<rect width="73" height="14" fill="white" transform="translate(270 75)"/>
</clipPath>
<clipPath id="clip4_116_907">
<rect width="76" height="14" fill="white" transform="translate(270 95)"/>
</clipPath>
<clipPath id="clip5_116_907">
<rect width="77" height="14" fill="white" transform="translate(270 115)"/>
</clipPath>
</defs>
</svg>
