<svg width="25" height="24" viewBox="0 0 25 24" fill="none" xmlns="http://www.w3.org/2000/svg">
<path d="M15.3 4.61286L22.001 15.7739C22.964 17.3769 22.491 19.4859 20.944 20.4839C20.4248 20.8201 19.8196 20.9992 19.201 20.9999H5.798C3.977 20.9999 2.5 19.4699 2.5 17.5809C2.5 16.9419 2.673 16.3169 2.998 15.7739L9.7 4.61286C10.662 3.00986 12.696 2.51886 14.243 3.51686C14.671 3.79286 15.033 4.16786 15.3 4.61286ZM13.08 5.45186C12.9576 5.37311 12.8205 5.32 12.6769 5.29574C12.5334 5.27147 12.3865 5.27654 12.245 5.31066C12.1035 5.34477 11.9703 5.40722 11.8536 5.49422C11.7369 5.58122 11.6391 5.69098 11.566 5.81686L4.865 16.9799C4.75615 17.1618 4.69877 17.3699 4.699 17.5819C4.699 18.2119 5.191 18.7219 5.799 18.7219H19.2C19.406 18.7219 19.607 18.6619 19.781 18.5499C20.0307 18.384 20.2067 18.1281 20.2725 17.8357C20.3383 17.5432 20.2886 17.2367 20.134 16.9799L13.433 5.81686C13.3451 5.66988 13.2247 5.54501 13.081 5.45186H13.08ZM12.5 16.9999C12.2348 16.9999 11.9804 16.8945 11.7929 16.707C11.6054 16.5194 11.5 16.2651 11.5 15.9999C11.5 15.7346 11.6054 15.4803 11.7929 15.2928C11.9804 15.1052 12.2348 14.9999 12.5 14.9999C12.7652 14.9999 13.0196 15.1052 13.2071 15.2928C13.3946 15.4803 13.5 15.7346 13.5 15.9999C13.5 16.2651 13.3946 16.5194 13.2071 16.707C13.0196 16.8945 12.7652 16.9999 12.5 16.9999ZM12.5 7.99986C12.7652 7.99986 13.0196 8.10522 13.2071 8.29275C13.3946 8.48029 13.5 8.73464 13.5 8.99986V12.9999C13.5 13.2651 13.3946 13.5194 13.2071 13.707C13.0196 13.8945 12.7652 13.9999 12.5 13.9999C12.2348 13.9999 11.9804 13.8945 11.7929 13.707C11.6054 13.5194 11.5 13.2651 11.5 12.9999V8.99986C11.5 8.73464 11.6054 8.48029 11.7929 8.29275C11.9804 8.10522 12.2348 7.99986 12.5 7.99986Z" fill="white"/>
</svg>
