<svg width="21" height="20" viewBox="0 0 21 20" fill="none" xmlns="http://www.w3.org/2000/svg">
<path d="M12.8415 10.2334C13.369 9.66695 13.6661 8.92406 13.6748 8.15008C13.6748 7.31465 13.343 6.51343 12.7522 5.9227C12.1615 5.33196 11.3603 5.00008 10.5248 5.00008C9.68941 5.00008 8.88819 5.33196 8.29745 5.9227C7.70671 6.51343 7.37484 7.31465 7.37484 8.15008C7.38353 8.92406 7.68069 9.66695 8.20817 10.2334C7.47372 10.5991 6.84169 11.1417 6.36893 11.8123C5.89618 12.4829 5.59753 13.2604 5.49984 14.0751C5.47553 14.2961 5.54001 14.5177 5.6791 14.6912C5.81819 14.8647 6.02049 14.9758 6.2415 15.0001C6.46252 15.0244 6.68414 14.9599 6.85761 14.8208C7.03108 14.6817 7.14219 14.4794 7.1665 14.2584C7.26595 13.451 7.65721 12.7079 8.26658 12.169C8.87594 11.63 9.66135 11.3326 10.4748 11.3326C11.2883 11.3326 12.0737 11.63 12.6831 12.169C13.2925 12.7079 13.6837 13.451 13.7832 14.2584C13.8063 14.4721 13.9112 14.6686 14.0758 14.8068C14.2404 14.945 14.452 15.0142 14.6665 15.0001H14.7582C14.9766 14.9749 15.1763 14.8645 15.3136 14.6928C15.451 14.5211 15.5149 14.3021 15.4915 14.0834C15.4011 13.2731 15.1118 12.4976 14.6495 11.826C14.1872 11.1543 13.5661 10.6072 12.8415 10.2334ZM10.4998 9.63342C10.2065 9.63342 9.91967 9.54642 9.67574 9.38343C9.43181 9.22044 9.24169 8.98877 9.12942 8.71773C9.01715 8.44669 8.98777 8.14844 9.04501 7.8607C9.10224 7.57296 9.24351 7.30865 9.45096 7.10121C9.65841 6.89376 9.92272 6.75249 10.2105 6.69525C10.4982 6.63802 10.7964 6.66739 11.0675 6.77966C11.3385 6.89193 11.5702 7.08205 11.7332 7.32599C11.8962 7.56992 11.9832 7.85671 11.9832 8.15008C11.9832 8.54349 11.8269 8.92078 11.5487 9.19896C11.2705 9.47714 10.8932 9.63342 10.4998 9.63342ZM16.3332 1.66675H4.6665C4.00346 1.66675 3.36758 1.93014 2.89874 2.39898C2.4299 2.86782 2.1665 3.50371 2.1665 4.16675V15.8334C2.1665 16.4965 2.4299 17.1323 2.89874 17.6012C3.36758 18.07 4.00346 18.3334 4.6665 18.3334H16.3332C16.9962 18.3334 17.6321 18.07 18.1009 17.6012C18.5698 17.1323 18.8332 16.4965 18.8332 15.8334V4.16675C18.8332 3.50371 18.5698 2.86782 18.1009 2.39898C17.6321 1.93014 16.9962 1.66675 16.3332 1.66675ZM17.1665 15.8334C17.1665 16.0544 17.0787 16.2664 16.9224 16.4227C16.7661 16.579 16.5542 16.6667 16.3332 16.6667H4.6665C4.44549 16.6667 4.23353 16.579 4.07725 16.4227C3.92097 16.2664 3.83317 16.0544 3.83317 15.8334V4.16675C3.83317 3.94573 3.92097 3.73377 4.07725 3.57749C4.23353 3.42121 4.44549 3.33341 4.6665 3.33341H16.3332C16.5542 3.33341 16.7661 3.42121 16.9224 3.57749C17.0787 3.73377 17.1665 3.94573 17.1665 4.16675V15.8334Z" fill="#444444"/>
</svg>
