<svg width="20" height="20" viewBox="0 0 20 20" fill="none" xmlns="http://www.w3.org/2000/svg">
<path d="M17.4998 10C17.2788 10 17.0669 10.0878 16.9106 10.2441C16.7543 10.4004 16.6665 10.6124 16.6665 10.8334V15.8334C16.6665 16.0544 16.5787 16.2663 16.4224 16.4226C16.2661 16.5789 16.0542 16.6667 15.8332 16.6667H4.1665C3.94549 16.6667 3.73353 16.5789 3.57725 16.4226C3.42097 16.2663 3.33317 16.0544 3.33317 15.8334V4.1667C3.33317 3.94568 3.42097 3.73372 3.57725 3.57744C3.73353 3.42116 3.94549 3.33336 4.1665 3.33336H9.1665C9.38752 3.33336 9.59948 3.24557 9.75576 3.08929C9.91204 2.93301 9.99984 2.72104 9.99984 2.50003C9.99984 2.27902 9.91204 2.06706 9.75576 1.91077C9.59948 1.75449 9.38752 1.6667 9.1665 1.6667H4.1665C3.50346 1.6667 2.86758 1.93009 2.39874 2.39893C1.9299 2.86777 1.6665 3.50366 1.6665 4.1667V15.8334C1.6665 16.4964 1.9299 17.1323 2.39874 17.6011C2.86758 18.07 3.50346 18.3334 4.1665 18.3334H15.8332C16.4962 18.3334 17.1321 18.07 17.6009 17.6011C18.0698 17.1323 18.3332 16.4964 18.3332 15.8334V10.8334C18.3332 10.6124 18.2454 10.4004 18.0891 10.2441C17.9328 10.0878 17.7209 10 17.4998 10ZM4.99984 10.6334V14.1667C4.99984 14.3877 5.08764 14.5997 5.24392 14.756C5.4002 14.9122 5.61216 15 5.83317 15H9.3665C9.47618 15.0007 9.58489 14.9796 9.68643 14.9382C9.78796 14.8967 9.8803 14.8356 9.95817 14.7584L15.7248 8.98336L18.0915 6.6667C18.1696 6.58923 18.2316 6.49706 18.2739 6.39551C18.3162 6.29396 18.338 6.18504 18.338 6.07503C18.338 5.96502 18.3162 5.8561 18.2739 5.75455C18.2316 5.653 18.1696 5.56083 18.0915 5.48336L14.5582 1.90836C14.4807 1.83026 14.3885 1.76826 14.287 1.72595C14.1854 1.68365 14.0765 1.66187 13.9665 1.66187C13.8565 1.66187 13.7476 1.68365 13.646 1.72595C13.5445 1.76826 13.4523 1.83026 13.3748 1.90836L11.0248 4.2667L5.2415 10.0417C5.16427 10.1196 5.10317 10.2119 5.06169 10.3134C5.02022 10.415 4.9992 10.5237 4.99984 10.6334ZM13.9665 3.67503L16.3248 6.03336L15.1415 7.2167L12.7832 4.85836L13.9665 3.67503ZM6.6665 10.975L11.6082 6.03336L13.9665 8.3917L9.02484 13.3334H6.6665V10.975Z" fill="#444444"/>
</svg>
