<svg width="21" height="20" viewBox="0 0 21 20" fill="none" xmlns="http://www.w3.org/2000/svg">
<path d="M2.16699 4.37508C2.16699 3.65679 2.45233 2.96791 2.96024 2.46C3.46816 1.95209 4.15703 1.66675 4.87533 1.66675H13.6253C14.3436 1.66675 15.0325 1.95209 15.5404 2.46C16.0483 2.96791 16.3337 3.65679 16.3337 4.37508V9.40258C16.0187 9.24742 15.6723 9.16673 15.3212 9.16675H15.0837V4.37508C15.0837 3.98831 14.93 3.61737 14.6565 3.34388C14.383 3.07039 14.0121 2.91675 13.6253 2.91675H4.87533C4.48855 2.91675 4.11762 3.07039 3.84413 3.34388C3.57064 3.61737 3.41699 3.98831 3.41699 4.37508V13.9584C3.41699 14.7634 4.07033 15.4167 4.87533 15.4167H7.68366L6.63116 16.6667H4.87533C4.15703 16.6667 3.46816 16.3814 2.96024 15.8735C2.45233 15.3656 2.16699 14.6767 2.16699 13.9584V4.37508ZM6.12533 5.00008C5.95957 5.00008 5.80059 5.06593 5.68338 5.18314C5.56617 5.30035 5.50033 5.45932 5.50033 5.62508C5.50033 5.79084 5.56617 5.94981 5.68338 6.06702C5.80059 6.18423 5.95957 6.25008 6.12533 6.25008H12.3753C12.5411 6.25008 12.7001 6.18423 12.8173 6.06702C12.9345 5.94981 13.0003 5.79084 13.0003 5.62508C13.0003 5.45932 12.9345 5.30035 12.8173 5.18314C12.7001 5.06593 12.5411 5.00008 12.3753 5.00008H6.12533ZM6.39199 10.3617C6.44217 10.2537 6.52217 10.1623 6.62256 10.0982C6.72295 10.0342 6.83956 10.0001 6.95866 10.0001H15.3212C15.5336 10.0002 15.7435 10.0467 15.9361 10.1364C16.1287 10.226 16.2993 10.3567 16.4362 10.5192L19.5195 14.1809C19.6143 14.2936 19.6664 14.4361 19.6664 14.5834C19.6664 14.7307 19.6143 14.8732 19.5195 14.9859L16.4362 18.6476C16.2993 18.8101 16.1287 18.9408 15.9361 19.0305C15.7435 19.1201 15.5336 19.1667 15.3212 19.1667H6.95866C6.83959 19.1668 6.72298 19.1328 6.62257 19.0688C6.52215 19.0048 6.44211 18.9135 6.39186 18.8055C6.3416 18.6976 6.32323 18.5775 6.3389 18.4595C6.35458 18.3414 6.40364 18.2303 6.48033 18.1392L9.47533 14.5834L6.48033 11.0276C6.40359 10.9364 6.3545 10.8253 6.33885 10.7071C6.3232 10.589 6.34164 10.4689 6.39199 10.3609V10.3617ZM8.30199 11.2501L10.7703 14.1809C10.8652 14.2936 10.9172 14.4361 10.9172 14.5834C10.9172 14.7307 10.8652 14.8732 10.7703 14.9859L8.30199 17.9167H15.3212C15.3515 17.9167 15.3814 17.9101 15.4089 17.8973C15.4364 17.8844 15.4608 17.8658 15.4803 17.8426L18.2253 14.5834L15.4803 11.3242C15.4608 11.301 15.4364 11.2824 15.4089 11.2696C15.3814 11.2568 15.3515 11.2501 15.3212 11.2501H8.30199ZM6.12533 7.50008C5.95957 7.50008 5.80059 7.56593 5.68338 7.68314C5.56617 7.80035 5.50033 7.95932 5.50033 8.12508C5.50033 8.29084 5.56617 8.44981 5.68338 8.56702C5.80059 8.68423 5.95957 8.75008 6.12533 8.75008H9.87533C10.0411 8.75008 10.2001 8.68423 10.3173 8.56702C10.4345 8.44981 10.5003 8.29084 10.5003 8.12508C10.5003 7.95932 10.4345 7.80035 10.3173 7.68314C10.2001 7.56593 10.0411 7.50008 9.87533 7.50008H6.12533Z" fill="#444444"/>
</svg>
