<svg width="21" height="20" viewBox="0 0 21 20" fill="none" xmlns="http://www.w3.org/2000/svg">
<path d="M6.33333 14.1667H9.66667C9.90278 14.1667 10.1008 14.0867 10.2608 13.9267C10.4208 13.7667 10.5006 13.5689 10.5 13.3333C10.5 13.0972 10.42 12.8992 10.26 12.7392C10.1 12.5792 9.90222 12.4994 9.66667 12.5H6.33333C6.09722 12.5 5.89917 12.58 5.73917 12.74C5.57917 12.9 5.49945 13.0978 5.5 13.3333C5.5 13.5694 5.58 13.7675 5.74 13.9275C5.9 14.0875 6.09778 14.1672 6.33333 14.1667ZM8.83333 10.8333H12.1667C12.4028 10.8333 12.6008 10.7533 12.7608 10.5933C12.9208 10.4333 13.0006 10.2356 13 10C13 9.76389 12.92 9.56583 12.76 9.40583C12.6 9.24583 12.4022 9.16611 12.1667 9.16667H8.83333C8.59722 9.16667 8.39917 9.24667 8.23917 9.40667C8.07917 9.56667 7.99945 9.76445 8 10C8 10.2361 8.08 10.4342 8.24 10.5942C8.4 10.7542 8.59778 10.8339 8.83333 10.8333ZM11.3333 7.5H14.6667C14.9028 7.5 15.1008 7.42 15.2608 7.26C15.4208 7.1 15.5006 6.90222 15.5 6.66667C15.5 6.43056 15.42 6.2325 15.26 6.0725C15.1 5.9125 14.9022 5.83278 14.6667 5.83333H11.3333C11.0972 5.83333 10.8992 5.91333 10.7392 6.07333C10.5792 6.23334 10.4994 6.43111 10.5 6.66667C10.5 6.90278 10.58 7.10083 10.74 7.26084C10.9 7.42084 11.0978 7.50056 11.3333 7.5ZM4.66667 17.5C4.20833 17.5 3.81583 17.3367 3.48917 17.01C3.1625 16.6833 2.99945 16.2911 3 15.8333V4.16667C3 3.70833 3.16333 3.31583 3.49 2.98917C3.81667 2.6625 4.20889 2.49945 4.66667 2.5H16.3333C16.7917 2.5 17.1842 2.66333 17.5108 2.99C17.8375 3.31667 18.0006 3.70889 18 4.16667V15.8333C18 16.2917 17.8367 16.6842 17.51 17.0108C17.1833 17.3375 16.7911 17.5006 16.3333 17.5H4.66667ZM4.66667 15.8333H16.3333V4.16667H4.66667V15.8333Z" fill="#444444"/>
</svg>
